
<svg enable-background="new 0 0 60 60" viewBox="0 0 60 60" xmlns="http://www.w3.org/2000/svg"><path d="m46.1 19.2c4.4.3 8.5.8 12.3 1.1-3.6-3.3-8.9-6-14.8-7.8-1.5.6-3 1.2-4.6 1.8 2.6 1.5 5 3.1 7.1 4.9" fill="#ba9039"/><path d="m16.4 12.5c-5.9 1.8-11.2 4.5-14.8 7.8 3.8-.3 7.9-.7 12.2-1 2.1-1.8 4.5-3.5 7.1-5-1.5-.6-3-1.2-4.5-1.8" fill="#ba9039"/><path d="m23 8.9c-5.6-.8-10.8-.4-15.1.8 2.8.8 5.6 1.7 8.5 2.8 2.6-.8 5.4-1.4 8.2-1.7-.6-.7-1.1-1.3-1.6-1.9" fill="#fdb732"/><path d="m41.9 22.9c.7 1.2 1.4 2.5 2 3.7 5.5 3.7 10.5 7.7 15 11.6-1.7-6.3-6.2-13.4-12.8-19-2.2-.2-4.5-.3-6.9-.4 1 1.3 1.9 2.6 2.7 4.1" fill="#fdb732"/><path d="m43.7 12.5c2.9-1.1 5.7-2 8.5-2.8-4.4-1.2-9.6-1.6-15.2-.8-.5.6-1 1.3-1.5 1.9 2.8.3 5.5.9 8.2 1.7" fill="#806746"/><path d="m20.7 18.9c-2.4.1-4.7.3-6.9.4-6.6 5.6-10.9 12.7-12.7 18.9 4.5-4 9.5-7.9 15-11.6.6-1.3 1.2-2.5 2-3.7.8-1.4 1.7-2.7 2.6-4" fill="#806746"/><g fill="#619f4e"><path d="m34.5 20.9c-.2-.1-.3-.2-.5-.2.1 1.5.2 3.1.3 4.7 4.8 7.8 11.3 21 13.3 28.9 1.2-7.7.7-18-3.8-27.7-2.9-2-6-3.9-9.3-5.7"/><path d="m27.8 8.2s0-.1.1-.3c-3.6-2.4-7.2-4.1-10.6-5.1 1.9 1.7 3.8 3.7 5.7 6.1 1.5.2 3 .5 4.5.9.1-.6.2-1.1.3-1.6"/><path d="m32.2 7.9c0 .1.1.2.1.3.1.5.2 1 .3 1.6 1.5-.4 3-.7 4.5-.9 1.9-2.3 3.8-4.4 5.7-6.1-3.4 1-7.1 2.7-10.6 5.1z"/><path d="m25.5 20.9c-3.3 1.8-6.4 3.7-9.4 5.7-4.5 9.7-5 20-3.8 27.7 2.1-7.8 8.5-21.1 13.4-28.9.1-1.6.2-3.2.3-4.7-.2.1-.4.1-.5.2"/></g><path d="m32.2 7.9c-.6-2.8-1.4-5.5-2.2-7.9-.8 2.4-1.6 5.1-2.2 7.9.7.5 1.5 1 2.2 1.6.7-.6 1.4-1.1 2.2-1.6" fill="#036f43"/><path d="m30 18.6c-1.5 2.3-3 4.6-4.3 6.7-.1 1.5-.1 3.1-.1 4.6 0 11.4 1.7 21.9 4.4 30 2.8-8.1 4.4-18.6 4.4-30 0-1.6 0-3.1-.1-4.6s0 0 0-.1c-1.3-2-2.8-4.3-4.3-6.6" fill="#036f43"/><path d="m21.5 14c1.3-.7 2.6-1.3 4-1.9-.3-.4-.7-.9-1-1.3-2.8.3-5.5.9-8.2 1.7 1.5.6 3 1.2 4.6 1.8.2-.1.4-.2.6-.3" fill="#bd7734"/><path d="m36.5 15.5c.9 1 1.8 2.1 2.7 3.3 2.4.1 4.7.3 6.9.5-2.1-1.8-4.5-3.4-7-4.9-.9.3-1.7.7-2.6 1.1" fill="#bd7734"/><path d="m34.5 12.1c1.3.6 2.7 1.2 4 1.9.2.1.4.2.6.3 1.5-.7 3.1-1.3 4.6-1.8-2.6-.8-5.4-1.4-8.2-1.7-.3.4-.7.9-1 1.3" fill="#64431d"/><path d="m23.5 15.5c-.9-.4-1.7-.8-2.6-1.1-2.6 1.5-5 3.1-7.1 5 2.2-.2 4.6-.3 6.9-.4.9-1.3 1.8-2.4 2.8-3.5" fill="#64431d"/><path d="m26 12.8c-.2-.3-.4-.5-.6-.7-1.3.6-2.7 1.2-4 1.9-.2.1-.4.2-.6.3.9.4 1.7.7 2.6 1.1.9-.9 1.8-1.7 2.6-2.6" fill="#643417"/><path d="m36.5 15.5c.9-.4 1.7-.8 2.6-1.1-.2-.1-.4-.2-.6-.3-1.3-.7-2.6-1.3-4-1.9-.2.2-.4.5-.6.7.9.8 1.8 1.7 2.6 2.6" fill="#643417"/><path d="m27.3 10.5c0-.3.1-.5.2-.8-1.5-.4-3-.7-4.5-.9.5.6 1 1.3 1.5 1.9.9 0 1.9-.1 2.8-.2" fill="#5a7139"/><path d="m39.2 18.8c-1.8-.1-3.5-.1-5.3-.2.1.7.1 1.4.2 2.1.2.1.3.2.5.2 3.3 1.8 6.4 3.7 9.4 5.7-.6-1.3-1.2-2.5-2-3.7-.9-1.5-1.8-2.8-2.8-4.1" fill="#5a7139"/><path d="m33.9 18.6c1.8 0 3.6.1 5.3.2-.9-1.1-1.7-2.2-2.7-3.3-1 .4-1.9.9-2.9 1.3.1.6.2 1.2.3 1.8" fill="#4b4d23"/><path d="m27.3 10.5c-.9.1-1.9.1-2.8.3.3.4.7.9 1 1.3.6-.2 1.1-.4 1.7-.7 0-.3 0-.6.1-.9" fill="#4b4d23"/><path d="m27.1 11.9c0-.2.1-.3.1-.5-.6.2-1.1.4-1.7.7.2.2.4.5.6.8.3-.4.6-.7 1-1" fill="#2b2916"/><path d="m34 12.8c-.2.3-.5.7-.7 1 .1 1 .3 2 .4 3 1-.5 1.9-.9 2.9-1.3-.9-1-1.8-1.8-2.6-2.7" fill="#2b2916"/><path d="m26 20.7c.1-.7.1-1.3.2-2-1.8.1-3.7.1-5.4.2-.9 1.3-1.8 2.6-2.6 4-.7 1.2-1.4 2.5-2 3.7 3-2 6.1-3.9 9.4-5.7 0-.1.2-.1.4-.2" fill="#354e28"/><path d="m32.7 10.5c.9.1 1.9.1 2.8.3.5-.7 1-1.3 1.5-1.9-1.5.2-3 .5-4.5.9.1.2.2.5.2.7" fill="#354e28"/><path d="m23.5 15.5c-1 1.1-1.9 2.2-2.8 3.4 1.8-.1 3.6-.2 5.4-.2.1-.6.1-1.3.2-1.9-.9-.5-1.9-.9-2.8-1.3" fill="#29321b"/><path d="m34.5 12.1c.3-.4.7-.9 1-1.3-.9-.1-1.9-.2-2.8-.3.1.3.1.6.2.9.5.2 1.1.5 1.6.7" fill="#29321b"/><path d="m33 11.9c.3.3.7.6 1 .9.2-.2.4-.5.6-.7-.5-.2-1.1-.4-1.6-.7-.1.2-.1.3 0 .5" fill="#2a2413"/><path d="m26.7 13.8c-.2-.3-.5-.7-.7-1-.9.8-1.7 1.7-2.6 2.6 1 .4 1.9.9 2.9 1.3.2-.9.3-1.9.4-2.9" fill="#2a2413"/><path d="m34 12.8c-.3-.3-.7-.6-1-.9.1.6.2 1.3.3 1.9.2-.3.4-.6.7-1" fill="#0a1f13"/><path d="m26 12.8c.2.3.5.7.7 1 .1-.7.2-1.3.3-1.9-.3.3-.6.6-1 .9" fill="#0a1f13"/><path d="m27.8 7.9c0 .1 0 .2-.1.3-.1.5-.2 1-.3 1.6.5.1 1.1.3 1.6.4.3-.2.6-.5.9-.7-.6-.6-1.3-1.1-2.1-1.6z" fill="#00562f"/><path d="m30 18.6c1.5 2.3 2.9 4.6 4.3 6.7v.1c-.1-1.6-.2-3.2-.3-4.7-1.3-.7-2.7-1.4-4-2.1" fill="#00562f"/><path d="m29.1 10.2c-.6-.2-1.1-.3-1.7-.5 0 .3-.1.5-.1.8.5 0 1-.1 1.4-.1.1 0 .3-.1.4-.2" fill="#004322"/><path d="m30 18.6c1.3.7 2.7 1.4 4 2.1-.1-.7-.1-1.4-.2-2.1-1.2 0-2.5 0-3.8 0" fill="#004322"/><path d="m27.9 11.1c.3-.2.5-.5.8-.7-.5 0-1 0-1.4.1-.1.3-.1.6-.2.9.3-.1.5-.2.8-.3" fill="#002917"/><path d="m33.9 18.6c-.1-.6-.1-1.2-.2-1.8-1.2.6-2.4 1.2-3.6 1.8z" fill="#002a18"/><path d="m27.1 11.4c0 .2-.1.3-.1.5.3-.2.6-.5.8-.8-.2.1-.4.2-.7.3" fill="#00180e"/><path d="m30 18.6 3.6-1.8c-.1-1-.2-2-.4-3-1.1 1.6-2.1 3.2-3.2 4.8" fill="#00180e"/><path d="m30 18.6c-1.3.7-2.7 1.4-4 2.1-.1 1.5-.2 3.1-.3 4.7 1.3-2.2 2.8-4.5 4.3-6.8" fill="#00562f"/><path d="m30.9 10.2c.5-.2 1.1-.3 1.6-.4-.1-.5-.2-1.1-.3-1.6 0-.1 0-.2-.1-.2-.7.5-1.5 1-2.2 1.6.4.1.7.3 1 .6" fill="#00562f"/><path d="m26 20.7c1.4-.7 2.7-1.4 4-2.1-1.3 0-2.6 0-3.8.1-.1.6-.2 1.3-.2 2" fill="#002b19"/><path d="m32.7 10.5c-.1-.3-.1-.5-.2-.8-.5.1-1.1.3-1.6.4.1.1.2.2.4.3.5.1.9.1 1.4.1" fill="#002b19"/><path d="m32.1 11.1c.3.1.5.2.8.3-.1-.3-.1-.6-.2-.9-.5 0-1-.1-1.4-.1.2.3.5.5.8.7" fill="#001c11"/><path d="m30 18.6c-1.2-.6-2.4-1.2-3.6-1.8-.1.6-.1 1.2-.2 1.9 1.2-.1 2.5-.1 3.8-.1z" fill="#001b10"/><path d="m26.4 16.8c1.2.6 2.4 1.2 3.6 1.8-1-1.6-2.1-3.2-3.2-4.7-.2.9-.3 1.9-.4 2.9" fill="#00130b"/><path d="m32.9 11.4c-.3-.1-.5-.2-.8-.3.3.2.6.5.9.8-.1-.2-.1-.3-.1-.5" fill="#00120c"/><path d="m30 10.4.9-.3c-.3-.2-.6-.5-.9-.7-.3.2-.6.5-.9.7.3.2.6.2.9.3z" fill="#004624"/><path d="m30 10.4c-.3-.1-.6-.2-.9-.3-.1.1-.2.2-.4.3.4.1.9 0 1.3 0" fill="#002f1b"/><path d="m30 10.4c-.4 0-.8 0-1.2 0-.3.2-.6.4-.8.7.6-.2 1.3-.4 2-.7z" fill="#011e13"/><path d="m31.3 10.5c-.1-.1-.2-.2-.4-.3-.3.1-.6.2-.9.3.4-.1.9 0 1.3 0" fill="#052013"/><path d="m32.1 11.1c-.3-.2-.6-.5-.8-.7-.4 0-.8 0-1.2 0 .6.3 1.3.5 2 .7" fill="#01170e"/><path d="m33 11.9c-.3-.3-.6-.5-.9-.8-.7-.3-1.4-.5-2.1-.7-.7.2-1.4.5-2.1.7-.3.2-.6.5-.8.8-.1.6-.2 1.3-.3 1.9 1.1 1.6 2.2 3.1 3.2 4.7 1-1.6 2.1-3.2 3.2-4.7 0-.6-.1-1.3-.2-1.9" fill="#000405"/><path d="m46.1 19.2c4.4.3 8.5.8 12.3 1.1-3.6-3.3-8.9-6-14.8-7.8-1.5.6-3 1.2-4.6 1.8 2.6 1.5 5 3.1 7.1 4.9" fill="#ba9039"/><path d="m16.4 12.5c-5.9 1.8-11.2 4.5-14.8 7.8 3.8-.3 7.9-.7 12.2-1 2.1-1.8 4.5-3.5 7.1-5-1.5-.6-3-1.2-4.5-1.8" fill="#ba9039"/><path d="m23 8.9c-5.6-.8-10.8-.4-15.1.8 2.8.8 5.6 1.7 8.5 2.8 2.6-.8 5.4-1.4 8.2-1.7-.6-.7-1.1-1.3-1.6-1.9" fill="#fdb732"/><path d="m41.9 22.9c.7 1.2 1.4 2.5 2 3.7 5.5 3.7 10.5 7.7 15 11.6-1.7-6.3-6.2-13.4-12.8-19-2.2-.2-4.5-.3-6.9-.4 1 1.3 1.9 2.6 2.7 4.1" fill="#fdb732"/><path d="m43.7 12.5c2.9-1.1 5.7-2 8.5-2.8-4.4-1.2-9.6-1.6-15.2-.8-.5.6-1 1.3-1.5 1.9 2.8.3 5.5.9 8.2 1.7" fill="#806746"/><path d="m20.7 18.9c-2.4.1-4.7.3-6.9.4-6.6 5.6-10.9 12.7-12.7 18.9 4.5-4 9.5-7.9 15-11.6.6-1.3 1.2-2.5 2-3.7.8-1.4 1.7-2.7 2.6-4" fill="#806746"/><path d="m34.5 20.9c-.2-.1-.3-.2-.5-.2.1 1.5.2 3.1.3 4.7 4.8 7.8 11.3 21 13.3 28.9 1.2-7.7.7-18-3.8-27.7-2.9-2-6-3.9-9.3-5.7" fill="#619f4e"/><path d="m27.8 8.2s0-.1.1-.3c-3.6-2.4-7.2-4.1-10.6-5.1 1.9 1.7 3.8 3.7 5.7 6.1 1.5.2 3 .5 4.5.9.1-.6.2-1.1.3-1.6" fill="#619f4e"/><path d="m32.2 7.9c0 .1.1.2.1.3.1.5.2 1 .3 1.6 1.5-.4 3-.7 4.5-.9 1.9-2.3 3.8-4.4 5.7-6.1-3.4 1-7.1 2.7-10.6 5.1z" fill="#619f4e"/><path d="m25.5 20.9c-3.3 1.8-6.4 3.7-9.4 5.7-4.5 9.7-5 20-3.8 27.7 2.1-7.8 8.5-21.1 13.4-28.9.1-1.6.2-3.2.3-4.7-.2.1-.4.1-.5.2" fill="#619f4e"/><path d="m32.2 7.9c-.6-2.8-1.4-5.5-2.2-7.9-.8 2.4-1.6 5.1-2.2 7.9.7.5 1.5 1 2.2 1.6.7-.6 1.4-1.1 2.2-1.6" fill="#036f43"/><path d="m30 18.6c-1.5 2.3-3 4.6-4.3 6.7-.1 1.5-.1 3.1-.1 4.6 0 11.4 1.7 21.9 4.4 30 2.8-8.1 4.4-18.6 4.4-30 0-1.6 0-3.1-.1-4.6s0 0 0-.1c-1.3-2-2.8-4.3-4.3-6.6" fill="#036f43"/><path d="m21.5 14c1.3-.7 2.6-1.3 4-1.9-.3-.4-.7-.9-1-1.3-2.8.3-5.5.9-8.2 1.7 1.5.6 3 1.2 4.6 1.8.2-.1.4-.2.6-.3" fill="#bd7734"/><path d="m36.5 15.5c.9 1 1.8 2.1 2.7 3.3 2.4.1 4.7.3 6.9.5-2.1-1.8-4.5-3.4-7-4.9-.9.3-1.7.7-2.6 1.1" fill="#bd7734"/><path d="m34.5 12.1c1.3.6 2.7 1.2 4 1.9.2.1.4.2.6.3 1.5-.7 3.1-1.3 4.6-1.8-2.6-.8-5.4-1.4-8.2-1.7-.3.4-.7.9-1 1.3" fill="#64431d"/><path d="m23.5 15.5c-.9-.4-1.7-.8-2.6-1.1-2.6 1.5-5 3.1-7.1 5 2.2-.2 4.6-.3 6.9-.4.9-1.3 1.8-2.4 2.8-3.5" fill="#64431d"/><path d="m26 12.8c-.2-.3-.4-.5-.6-.7-1.3.6-2.7 1.2-4 1.9-.2.1-.4.2-.6.3.9.4 1.7.7 2.6 1.1.9-.9 1.8-1.7 2.6-2.6" fill="#643417"/><path d="m36.5 15.5c.9-.4 1.7-.8 2.6-1.1-.2-.1-.4-.2-.6-.3-1.3-.7-2.6-1.3-4-1.9-.2.2-.4.5-.6.7.9.8 1.8 1.7 2.6 2.6" fill="#643417"/><path d="m27.3 10.5c0-.3.1-.5.2-.8-1.5-.4-3-.7-4.5-.9.5.6 1 1.3 1.5 1.9.9 0 1.9-.1 2.8-.2" fill="#5a7139"/><path d="m39.2 18.8c-1.8-.1-3.5-.1-5.3-.2.1.7.1 1.4.2 2.1.2.1.3.2.5.2 3.3 1.8 6.4 3.7 9.4 5.7-.6-1.3-1.2-2.5-2-3.7-.9-1.5-1.8-2.8-2.8-4.1" fill="#5a7139"/><path d="m33.9 18.6c1.8 0 3.6.1 5.3.2-.9-1.1-1.7-2.2-2.7-3.3-1 .4-1.9.9-2.9 1.3.1.6.2 1.2.3 1.8" fill="#4b4d23"/><path d="m27.3 10.5c-.9.1-1.9.1-2.8.3.3.4.7.9 1 1.3.6-.2 1.1-.4 1.7-.7 0-.3 0-.6.1-.9" fill="#4b4d23"/><path d="m27.1 11.9c0-.2.1-.3.1-.5-.6.2-1.1.4-1.7.7.2.2.4.5.6.8.3-.4.6-.7 1-1" fill="#2b2916"/><path d="m34 12.8c-.2.3-.5.7-.7 1 .1 1 .3 2 .4 3 1-.5 1.9-.9 2.9-1.3-.9-1-1.8-1.8-2.6-2.7" fill="#2b2916"/><path d="m26 20.7c.1-.7.1-1.3.2-2-1.8.1-3.7.1-5.4.2-.9 1.3-1.8 2.6-2.6 4-.7 1.2-1.4 2.5-2 3.7 3-2 6.1-3.9 9.4-5.7 0-.1.2-.1.4-.2" fill="#354e28"/><path d="m32.7 10.5c.9.1 1.9.1 2.8.3.5-.7 1-1.3 1.5-1.9-1.5.2-3 .5-4.5.9.1.2.2.5.2.7" fill="#354e28"/><path d="m23.5 15.5c-1 1.1-1.9 2.2-2.8 3.4 1.8-.1 3.6-.2 5.4-.2.1-.6.1-1.3.2-1.9-.9-.5-1.9-.9-2.8-1.3" fill="#29321b"/><path d="m34.5 12.1c.3-.4.7-.9 1-1.3-.9-.1-1.9-.2-2.8-.3.1.3.1.6.2.9.5.2 1.1.5 1.6.7" fill="#29321b"/><path d="m33 11.9c.3.3.7.6 1 .9.2-.2.4-.5.6-.7-.5-.2-1.1-.4-1.6-.7-.1.2-.1.3 0 .5" fill="#2a2413"/><path d="m26.7 13.8c-.2-.3-.5-.7-.7-1-.9.8-1.7 1.7-2.6 2.6 1 .4 1.9.9 2.9 1.3.2-.9.3-1.9.4-2.9" fill="#2a2413"/><path d="m34 12.8c-.3-.3-.7-.6-1-.9.1.6.2 1.3.3 1.9.2-.3.4-.6.7-1" fill="#0a1f13"/><path d="m26 12.8c.2.3.5.7.7 1 .1-.7.2-1.3.3-1.9-.3.3-.6.6-1 .9" fill="#0a1f13"/><path d="m27.8 7.9c0 .1 0 .2-.1.3-.1.5-.2 1-.3 1.6.5.1 1.1.3 1.6.4.3-.2.6-.5.9-.7-.6-.6-1.3-1.1-2.1-1.6z" fill="#00562f"/><path d="m30 18.6c1.5 2.3 2.9 4.6 4.3 6.7v.1c-.1-1.6-.2-3.2-.3-4.7-1.3-.7-2.7-1.4-4-2.1" fill="#00562f"/><path d="m29.1 10.2c-.6-.2-1.1-.3-1.7-.5 0 .3-.1.5-.1.8.5 0 1-.1 1.4-.1.1 0 .3-.1.4-.2" fill="#004322"/><path d="m30 18.6c1.3.7 2.7 1.4 4 2.1-.1-.7-.1-1.4-.2-2.1-1.2 0-2.5 0-3.8 0" fill="#004322"/><path d="m27.9 11.1c.3-.2.5-.5.8-.7-.5 0-1 0-1.4.1-.1.3-.1.6-.2.9.3-.1.5-.2.8-.3" fill="#002917"/><path d="m33.9 18.6c-.1-.6-.1-1.2-.2-1.8-1.2.6-2.4 1.2-3.6 1.8z" fill="#002a18"/><path d="m27.1 11.4c0 .2-.1.3-.1.5.3-.2.6-.5.8-.8-.2.1-.4.2-.7.3" fill="#00180e"/><path d="m30 18.6 3.6-1.8c-.1-1-.2-2-.4-3-1.1 1.6-2.1 3.2-3.2 4.8" fill="#00180e"/><path d="m30 18.6c-1.3.7-2.7 1.4-4 2.1-.1 1.5-.2 3.1-.3 4.7 1.3-2.2 2.8-4.5 4.3-6.8" fill="#00562f"/><path d="m30.9 10.2c.5-.2 1.1-.3 1.6-.4-.1-.5-.2-1.1-.3-1.6 0-.1 0-.2-.1-.2-.7.5-1.5 1-2.2 1.6.4.1.7.3 1 .6" fill="#00562f"/><path d="m26 20.7c1.4-.7 2.7-1.4 4-2.1-1.3 0-2.6 0-3.8.1-.1.6-.2 1.3-.2 2" fill="#002b19"/><path d="m32.7 10.5c-.1-.3-.1-.5-.2-.8-.5.1-1.1.3-1.6.4.1.1.2.2.4.3.5.1.9.1 1.4.1" fill="#002b19"/><path d="m32.1 11.1c.3.1.5.2.8.3-.1-.3-.1-.6-.2-.9-.5 0-1-.1-1.4-.1.2.3.5.5.8.7" fill="#001c11"/><path d="m30 18.6c-1.2-.6-2.4-1.2-3.6-1.8-.1.6-.1 1.2-.2 1.9 1.2-.1 2.5-.1 3.8-.1z" fill="#001b10"/><path d="m26.4 16.8c1.2.6 2.4 1.2 3.6 1.8-1-1.6-2.1-3.2-3.2-4.7-.2.9-.3 1.9-.4 2.9" fill="#00130b"/><path d="m32.9 11.4c-.3-.1-.5-.2-.8-.3.3.2.6.5.9.8-.1-.2-.1-.3-.1-.5" fill="#00120c"/><path d="m30 10.4.9-.3c-.3-.2-.6-.5-.9-.7-.3.2-.6.5-.9.7.3.2.6.2.9.3z" fill="#004624"/><path d="m30 10.4c-.3-.1-.6-.2-.9-.3-.1.1-.2.2-.4.3.4.1.9 0 1.3 0" fill="#002f1b"/><path d="m30 10.4c-.4 0-.8 0-1.2 0-.3.2-.6.4-.8.7.6-.2 1.3-.4 2-.7z" fill="#011e13"/><path d="m31.3 10.5c-.1-.1-.2-.2-.4-.3-.3.1-.6.2-.9.3.4-.1.9 0 1.3 0" fill="#052013"/><path d="m32.1 11.1c-.3-.2-.6-.5-.8-.7-.4 0-.8 0-1.2 0 .6.3 1.3.5 2 .7" fill="#01170e"/><path d="m33 11.9c-.3-.3-.6-.5-.9-.8-.7-.3-1.4-.5-2.1-.7-.7.2-1.4.5-2.1.7-.3.2-.6.5-.8.8-.1.6-.2 1.3-.3 1.9 1.1 1.6 2.2 3.1 3.2 4.7 1-1.6 2.1-3.2 3.2-4.7 0-.6-.1-1.3-.2-1.9" fill="#000405"/></svg>