
<svg enable-background="new 0 0 105 83" viewBox="0 0 105 83" xmlns="http://www.w3.org/2000/svg"><path d="m95.9 13.3c3 .2 5.7.5 8.3.7-2.4-2.2-6-4.1-10-5.3-1 .4-2 .8-3.1 1.2 1.8 1.1 3.3 2.2 4.8 3.4" fill="#ba9039"/><path d="m75.7 8.8c-4 1.2-7.5 3.1-10 5.3 2.6-.2 5.3-.5 8.2-.7 1.5-1.2 3.1-2.4 4.8-3.4-.9-.4-1.9-.8-3-1.2" fill="#ba9039"/><path d="m80.2 6.3c-3.7-.5-7.3-.3-10.2.6 1.9.5 3.8 1.1 5.7 1.9 1.8-.5 3.6-.9 5.5-1.2-.3-.4-.6-.9-1-1.3" fill="#fdb732"/><path d="m93 15.8c.5.8.9 1.7 1.3 2.5 3.7 2.5 7.1 5.2 10.1 7.9-1.2-4.3-4.2-9.1-8.6-12.9-1.5-.1-3.1-.2-4.7-.3.7.9 1.4 1.8 1.9 2.8" fill="#fdb732"/><path d="m94.2 8.8c2-.7 3.9-1.4 5.7-1.9-2.9-.9-6.4-1.1-10.2-.6-.3.4-.7.9-1 1.3 1.9.2 3.7.6 5.5 1.2" fill="#806746"/><path d="m78.7 13.1c-1.6.1-3.2.2-4.7.3-4.4 3.8-7.4 8.5-8.6 12.8 3.1-2.7 6.4-5.4 10.1-7.9.4-.9.8-1.7 1.3-2.5.7-1 1.3-1.9 1.9-2.7" fill="#806746"/><path d="m88 14.5c-.1-.1-.2-.1-.3-.2.1 1 .2 2.1.2 3.2 3.3 5.3 7.6 14.2 9 19.5.8-5.2.5-12.2-2.6-18.7-1.9-1.4-4-2.6-6.3-3.8" fill="#619f4e"/><path d="m83.5 5.8s0-.1 0-.2c-2.4-1.6-4.9-2.8-7.1-3.4 1.3 1.1 2.6 2.5 3.9 4.1 1 .1 2 .3 3 .6 0-.4.1-.7.2-1.1" fill="#619f4e"/><path d="m86.4 5.7v.2c.1.4.1.7.2 1.1 1-.3 2-.4 3-.6 1.3-1.6 2.6-3 3.9-4.1-2.2.6-4.6 1.7-7.1 3.4z" fill="#619f4e"/><path d="m81.9 14.5c-2.2 1.2-4.3 2.5-6.3 3.8-3 6.5-3.4 13.5-2.6 18.7 1.4-5.3 5.8-14.3 9-19.5 0-1.1.1-2.1.2-3.2-.1 0-.2.1-.3.2" fill="#619f4e"/><path d="m86.4 5.6c-.4-1.9-.9-3.7-1.4-5.3-.6 1.6-1.1 3.4-1.5 5.3.5.3 1 .7 1.5 1 .5-.3 1-.6 1.4-1" fill="#036f43"/><path d="m85 12.9c-1 1.6-2 3.1-2.9 4.6 0 1-.1 2.1-.1 3.1 0 7.7 1.1 14.8 3 20.3 1.9-5.5 3-12.6 3-20.3 0-1 0-2.1-.1-3.1-.9-1.5-1.9-3.1-2.9-4.6" fill="#036f43"/><path d="m79.2 9.8c.9-.5 1.8-.9 2.7-1.3-.2-.3-.4-.6-.7-.9-1.9.2-3.7.6-5.5 1.2 1 .4 2 .8 3.1 1.2.2-.1.3-.1.4-.2" fill="#bd7734"/><path d="m89.4 10.8c.6.7 1.2 1.4 1.8 2.2 1.6.1 3.2.2 4.7.3-1.4-1.2-3-2.3-4.7-3.3-.6.3-1.2.5-1.8.8" fill="#bd7734"/><path d="m88 8.5c.9.4 1.8.8 2.7 1.3.1.1.3.2.4.2 1-.4 2.1-.9 3.1-1.2-1.8-.5-3.6-.9-5.5-1.2-.2.3-.4.6-.7.9" fill="#64431d"/><path d="m80.6 10.8c-.6-.3-1.2-.5-1.7-.8-1.8 1-3.4 2.1-4.8 3.4 1.5-.1 3.1-.2 4.7-.3.5-.8 1.1-1.6 1.8-2.3" fill="#64431d"/><path d="m82.3 9c-.1-.2-.3-.3-.4-.5-.9.4-1.8.8-2.7 1.3-.1.1-.2.1-.4.2.6.2 1.2.5 1.7.8.6-.7 1.2-1.2 1.8-1.8" fill="#643417"/><path d="m89.4 10.8c.6-.3 1.2-.5 1.7-.8-.1-.1-.3-.2-.4-.2-.9-.5-1.8-.9-2.7-1.3-.1.2-.2.3-.4.5.7.6 1.2 1.1 1.8 1.8" fill="#643417"/><path d="m83.1 7.4c0-.2.1-.4.1-.5-1-.3-2-.4-3-.6.3.4.7.9 1 1.3.7-.1 1.3-.1 1.9-.2" fill="#5a7139"/><path d="m91.2 13c-1.2-.1-2.4-.1-3.6-.1 0 .5.1.9.1 1.4.1.1.2.1.3.2 2.2 1.2 4.3 2.5 6.3 3.8-.4-.9-.8-1.7-1.3-2.5-.5-1-1.2-1.9-1.8-2.8" fill="#5a7139"/><path d="m87.6 12.9c1.2 0 2.4.1 3.6.1-.6-.8-1.2-1.5-1.8-2.2-.6.3-1.3.6-1.9.9 0 .4 0 .8.1 1.2" fill="#4b4d23"/><path d="m83.1 7.4c-.6 0-1.3.1-1.9.2.2.3.4.6.7.9.4-.2.8-.3 1.1-.5.1-.2.1-.4.1-.6" fill="#4b4d23"/><path d="m83 8.4c0-.2 0-.3 0-.4-.4.1-.7.3-1.1.4.1.3.3.4.4.6.2-.2.5-.4.7-.6" fill="#2b2916"/><path d="m87.7 9c-.2.2-.3.4-.5.7.1.7.2 1.3.3 2 .6-.3 1.3-.6 1.9-.9-.6-.7-1.1-1.2-1.7-1.8" fill="#2b2916"/><path d="m82.2 14.3c0-.5.1-.9.1-1.4-1.2 0-2.5.1-3.7.2-.6.9-1.2 1.7-1.8 2.7-.5.8-.9 1.7-1.3 2.5 2-1.3 4.1-2.6 6.3-3.8.2-.1.3-.2.4-.2" fill="#354e28"/><path d="m86.8 7.4c.6 0 1.3.1 1.9.2.3-.4.7-.9 1-1.3-1 .1-2 .3-3 .6 0 .2.1.3.1.5" fill="#354e28"/><path d="m80.6 10.8c-.7.7-1.3 1.5-1.9 2.3 1.2-.1 2.4-.1 3.7-.1 0-.4.1-.8.1-1.3-.6-.3-1.3-.6-1.9-.9" fill="#29321b"/><path d="m88 8.5c.2-.3.4-.6.7-.9-.6-.1-1.3-.1-1.9-.2 0 .2.1.4.1.6.4.2.8.3 1.1.5" fill="#29321b"/><path d="m87 8.4c.2.2.5.4.7.6.1-.2.2-.3.4-.5-.4-.2-.7-.3-1.1-.4-.1 0 0 .2 0 .3" fill="#2a2413"/><path d="m82.8 9.7c-.2-.2-.3-.4-.5-.7-.6.6-1.2 1.2-1.7 1.8.6.3 1.3.6 1.9.9.1-.7.2-1.4.3-2" fill="#2a2413"/><path d="m87.7 9c-.2-.2-.5-.4-.7-.6.1.4.1.9.2 1.3.1-.3.3-.5.5-.7" fill="#0a1f13"/><path d="m82.3 9c.2.2.3.4.5.7.1-.4.1-.9.2-1.3-.2.2-.5.4-.7.6" fill="#0a1f13"/><path d="m83.5 5.7v.2c-.1.4-.1.7-.2 1.1.3 0 .7.1 1.1.2.2-.2.4-.3.6-.5-.5-.4-1-.7-1.5-1z" fill="#00562f"/><path d="m85 12.9c1 1.6 2 3.1 2.9 4.6 0-1.1-.1-2.1-.2-3.2-.9-.5-1.8-1-2.7-1.4" fill="#00562f"/><path d="m84.4 7.2c-.4-.1-.8-.2-1.2-.3 0 .2-.1.4-.1.5h1c.1-.1.2-.1.3-.2" fill="#004322"/><path d="m85 12.9c.9.5 1.8.9 2.7 1.4 0-.5-.1-.9-.1-1.4-.9 0-1.7 0-2.6 0" fill="#004322"/><path d="m83.6 7.8c.2-.2.4-.3.6-.5-.3 0-.6 0-1 0 0 .2-.1.4-.1.6.1.1.3 0 .5-.1" fill="#002917"/><path d="m87.6 12.9c0-.4-.1-.8-.1-1.2-.8.4-1.6.8-2.5 1.2z" fill="#002a18"/><path d="m83 8c0 .1 0 .2-.1.3.2-.2.4-.3.6-.5-.1.1-.3.2-.5.2" fill="#00180e"/><path d="m85 12.9c.8-.4 1.6-.8 2.5-1.2-.1-.7-.2-1.3-.3-2-.8 1-1.5 2.1-2.2 3.2" fill="#00180e"/><path d="m85 12.9c-.9.4-1.8.9-2.7 1.4-.1 1-.1 2.1-.2 3.2.9-1.5 1.9-3.1 2.9-4.6" fill="#00562f"/><path d="m85.6 7.2c.4-.1.7-.2 1.1-.3-.1-.4-.1-.7-.2-1.1 0 0 0-.1 0-.2-.5.4-1 .7-1.5 1.1.2.2.4.3.6.5" fill="#00562f"/><path d="m82.2 14.3c.9-.5 1.8-1 2.7-1.4-.9 0-1.7 0-2.6.1 0 .4 0 .8-.1 1.3" fill="#002b19"/><path d="m86.8 7.4c0-.2-.1-.4-.1-.5-.4.1-.7.2-1.1.3.1.1.2.1.2.2z" fill="#002b19"/><path d="m86.4 7.8c.2.1.3.2.5.2 0-.2-.1-.4-.1-.6-.3 0-.6 0-1 0 .2.1.4.3.6.4" fill="#001c11"/><path d="m85 12.9c-.8-.4-1.6-.8-2.5-1.2-.1.4-.1.8-.1 1.3.8-.1 1.7-.1 2.6-.1z" fill="#001b10"/><path d="m82.5 11.7c.8.4 1.6.8 2.5 1.2-.7-1.1-1.4-2.2-2.2-3.2-.1.6-.2 1.3-.3 2" fill="#00130b"/><path d="m86.9 8c-.2-.1-.3-.1-.5-.2.2.2.4.4.6.6 0-.1-.1-.3-.1-.4" fill="#00120c"/><path d="m85 7.4c.2-.1.4-.1.6-.2-.2-.2-.4-.3-.6-.5-.2.2-.4.3-.6.5.2 0 .4.1.6.2z" fill="#004624"/><path d="m85 7.4c-.2-.1-.4-.1-.6-.2-.1.1-.2.1-.2.2z" fill="#002f1b"/><path d="m85 7.4c-.3 0-.6 0-.8 0-.2.2-.4.3-.6.5.4-.2.9-.4 1.4-.5z" fill="#011e13"/><path d="m85.8 7.4c-.1-.1-.2-.1-.2-.2-.2.1-.4.1-.6.2z" fill="#052013"/><path d="m86.4 7.8c-.2-.2-.4-.3-.6-.5-.3 0-.6 0-.8 0 .4.2.9.4 1.4.5" fill="#01170e"/><path d="m87 8.4c-.2-.2-.4-.3-.6-.5-.5-.2-.9-.3-1.4-.5-.5.1-.9.3-1.4.5-.2.1-.4.3-.6.5-.1.4-.1.9-.2 1.3.7 1 1.5 2.1 2.2 3.2.7-1.1 1.4-2.2 2.2-3.2-.1-.5-.2-.9-.2-1.3" fill="#000405"/><path d="m95.9 13.3c3 .2 5.7.5 8.3.7-2.4-2.2-6-4.1-10-5.3-1 .4-2 .8-3.1 1.2 1.8 1.1 3.3 2.2 4.8 3.4" fill="#ba9039"/><path d="m75.7 8.8c-4 1.2-7.5 3.1-10 5.3 2.6-.2 5.3-.5 8.2-.7 1.5-1.2 3.1-2.4 4.8-3.4-.9-.4-1.9-.8-3-1.2" fill="#ba9039"/><path d="m80.2 6.3c-3.7-.5-7.3-.3-10.2.6 1.9.5 3.8 1.1 5.7 1.9 1.8-.5 3.6-.9 5.5-1.2-.3-.4-.6-.9-1-1.3" fill="#fdb732"/><path d="m93 15.8c.5.8.9 1.7 1.3 2.5 3.7 2.5 7.1 5.2 10.1 7.9-1.2-4.3-4.2-9.1-8.6-12.9-1.5-.1-3.1-.2-4.7-.3.7.9 1.4 1.8 1.9 2.8" fill="#fdb732"/><path d="m94.2 8.8c2-.7 3.9-1.4 5.7-1.9-2.9-.9-6.4-1.1-10.2-.6-.3.4-.7.9-1 1.3 1.9.2 3.7.6 5.5 1.2" fill="#806746"/><path d="m78.7 13.1c-1.6.1-3.2.2-4.7.3-4.4 3.8-7.4 8.5-8.6 12.8 3.1-2.7 6.4-5.4 10.1-7.9.4-.9.8-1.7 1.3-2.5.7-1 1.3-1.9 1.9-2.7" fill="#806746"/><path d="m88 14.5c-.1-.1-.2-.1-.3-.2.1 1 .2 2.1.2 3.2 3.3 5.3 7.6 14.2 9 19.5.8-5.2.5-12.2-2.6-18.7-1.9-1.4-4-2.6-6.3-3.8" fill="#619f4e"/><path d="m83.5 5.8s0-.1 0-.2c-2.4-1.6-4.9-2.8-7.1-3.4 1.3 1.1 2.6 2.5 3.9 4.1 1 .1 2 .3 3 .6 0-.4.1-.7.2-1.1" fill="#619f4e"/><path d="m86.4 5.7v.2c.1.4.1.7.2 1.1 1-.3 2-.4 3-.6 1.3-1.6 2.6-3 3.9-4.1-2.2.6-4.6 1.7-7.1 3.4z" fill="#619f4e"/><path d="m81.9 14.5c-2.2 1.2-4.3 2.5-6.3 3.8-3 6.5-3.4 13.5-2.6 18.7 1.4-5.3 5.8-14.3 9-19.5 0-1.1.1-2.1.2-3.2-.1 0-.2.1-.3.2" fill="#619f4e"/><path d="m86.4 5.6c-.4-1.9-.9-3.7-1.4-5.3-.6 1.6-1.1 3.4-1.5 5.3.5.3 1 .7 1.5 1 .5-.3 1-.6 1.4-1" fill="#036f43"/><path d="m85 12.9c-1 1.6-2 3.1-2.9 4.6 0 1-.1 2.1-.1 3.1 0 7.7 1.1 14.8 3 20.3 1.9-5.5 3-12.6 3-20.3 0-1 0-2.1-.1-3.1-.9-1.5-1.9-3.1-2.9-4.6" fill="#036f43"/><path d="m79.2 9.8c.9-.5 1.8-.9 2.7-1.3-.2-.3-.4-.6-.7-.9-1.9.2-3.7.6-5.5 1.2 1 .4 2 .8 3.1 1.2.2-.1.3-.1.4-.2" fill="#bd7734"/><path d="m89.4 10.8c.6.7 1.2 1.4 1.8 2.2 1.6.1 3.2.2 4.7.3-1.4-1.2-3-2.3-4.7-3.3-.6.3-1.2.5-1.8.8" fill="#bd7734"/><path d="m88 8.5c.9.4 1.8.8 2.7 1.3.1.1.3.2.4.2 1-.4 2.1-.9 3.1-1.2-1.8-.5-3.6-.9-5.5-1.2-.2.3-.4.6-.7.9" fill="#64431d"/><path d="m80.6 10.8c-.6-.3-1.2-.5-1.7-.8-1.8 1-3.4 2.1-4.8 3.4 1.5-.1 3.1-.2 4.7-.3.5-.8 1.1-1.6 1.8-2.3" fill="#64431d"/><path d="m82.3 9c-.1-.2-.3-.3-.4-.5-.9.4-1.8.8-2.7 1.3-.1.1-.2.1-.4.2.6.2 1.2.5 1.7.8.6-.7 1.2-1.2 1.8-1.8" fill="#643417"/><path d="m89.4 10.8c.6-.3 1.2-.5 1.7-.8-.1-.1-.3-.2-.4-.2-.9-.5-1.8-.9-2.7-1.3-.1.2-.2.3-.4.5.7.6 1.2 1.1 1.8 1.8" fill="#643417"/><path d="m83.1 7.4c0-.2.1-.4.1-.5-1-.3-2-.4-3-.6.3.4.7.9 1 1.3.7-.1 1.3-.1 1.9-.2" fill="#5a7139"/><path d="m91.2 13c-1.2-.1-2.4-.1-3.6-.1 0 .5.1.9.1 1.4.1.1.2.1.3.2 2.2 1.2 4.3 2.5 6.3 3.8-.4-.9-.8-1.7-1.3-2.5-.5-1-1.2-1.9-1.8-2.8" fill="#5a7139"/><path d="m87.6 12.9c1.2 0 2.4.1 3.6.1-.6-.8-1.2-1.5-1.8-2.2-.6.3-1.3.6-1.9.9 0 .4 0 .8.1 1.2" fill="#4b4d23"/><path d="m83.1 7.4c-.6 0-1.3.1-1.9.2.2.3.4.6.7.9.4-.2.8-.3 1.1-.5.1-.2.1-.4.1-.6" fill="#4b4d23"/><path d="m83 8.4c0-.2 0-.3 0-.4-.4.1-.7.3-1.1.4.1.3.3.4.4.6.2-.2.5-.4.7-.6" fill="#2b2916"/><path d="m87.7 9c-.2.2-.3.4-.5.7.1.7.2 1.3.3 2 .6-.3 1.3-.6 1.9-.9-.6-.7-1.1-1.2-1.7-1.8" fill="#2b2916"/><path d="m82.2 14.3c0-.5.1-.9.1-1.4-1.2 0-2.5.1-3.7.2-.6.9-1.2 1.7-1.8 2.7-.5.8-.9 1.7-1.3 2.5 2-1.3 4.1-2.6 6.3-3.8.2-.1.3-.2.4-.2" fill="#354e28"/><path d="m86.8 7.4c.6 0 1.3.1 1.9.2.3-.4.7-.9 1-1.3-1 .1-2 .3-3 .6 0 .2.1.3.1.5" fill="#354e28"/><path d="m80.6 10.8c-.7.7-1.3 1.5-1.9 2.3 1.2-.1 2.4-.1 3.7-.1 0-.4.1-.8.1-1.3-.6-.3-1.3-.6-1.9-.9" fill="#29321b"/><path d="m88 8.5c.2-.3.4-.6.7-.9-.6-.1-1.3-.1-1.9-.2 0 .2.1.4.1.6.4.2.8.3 1.1.5" fill="#29321b"/><path d="m87 8.4c.2.2.5.4.7.6.1-.2.2-.3.4-.5-.4-.2-.7-.3-1.1-.4-.1 0 0 .2 0 .3" fill="#2a2413"/><path d="m82.8 9.7c-.2-.2-.3-.4-.5-.7-.6.6-1.2 1.2-1.7 1.8.6.3 1.3.6 1.9.9.1-.7.2-1.4.3-2" fill="#2a2413"/><path d="m87.7 9c-.2-.2-.5-.4-.7-.6.1.4.1.9.2 1.3.1-.3.3-.5.5-.7" fill="#0a1f13"/><path d="m82.3 9c.2.2.3.4.5.7.1-.4.1-.9.2-1.3-.2.2-.5.4-.7.6" fill="#0a1f13"/><path d="m83.5 5.7v.2c-.1.4-.1.7-.2 1.1.3 0 .7.1 1.1.2.2-.2.4-.3.6-.5-.5-.4-1-.7-1.5-1z" fill="#00562f"/><path d="m85 12.9c1 1.6 2 3.1 2.9 4.6 0-1.1-.1-2.1-.2-3.2-.9-.5-1.8-1-2.7-1.4" fill="#00562f"/><path d="m84.4 7.2c-.4-.1-.8-.2-1.2-.3 0 .2-.1.4-.1.5h1c.1-.1.2-.1.3-.2" fill="#004322"/><path d="m85 12.9c.9.5 1.8.9 2.7 1.4 0-.5-.1-.9-.1-1.4-.9 0-1.7 0-2.6 0" fill="#004322"/><path d="m83.6 7.8c.2-.2.4-.3.6-.5-.3 0-.6 0-1 0 0 .2-.1.4-.1.6.1.1.3 0 .5-.1" fill="#002917"/><path d="m87.6 12.9c0-.4-.1-.8-.1-1.2-.8.4-1.6.8-2.5 1.2z" fill="#002a18"/><path d="m83 8c0 .1 0 .2-.1.3.2-.2.4-.3.6-.5-.1.1-.3.2-.5.2" fill="#00180e"/><path d="m85 12.9c.8-.4 1.6-.8 2.5-1.2-.1-.7-.2-1.3-.3-2-.8 1-1.5 2.1-2.2 3.2" fill="#00180e"/><path d="m85 12.9c-.9.4-1.8.9-2.7 1.4-.1 1-.1 2.1-.2 3.2.9-1.5 1.9-3.1 2.9-4.6" fill="#00562f"/><path d="m85.6 7.2c.4-.1.7-.2 1.1-.3-.1-.4-.1-.7-.2-1.1 0 0 0-.1 0-.2-.5.4-1 .7-1.5 1.1.2.2.4.3.6.5" fill="#00562f"/><path d="m82.2 14.3c.9-.5 1.8-1 2.7-1.4-.9 0-1.7 0-2.6.1 0 .4 0 .8-.1 1.3" fill="#002b19"/><path d="m86.8 7.4c0-.2-.1-.4-.1-.5-.4.1-.7.2-1.1.3.1.1.2.1.2.2z" fill="#002b19"/><path d="m86.4 7.8c.2.1.3.2.5.2 0-.2-.1-.4-.1-.6-.3 0-.6 0-1 0 .2.1.4.3.6.4" fill="#001c11"/><path d="m85 12.9c-.8-.4-1.6-.8-2.5-1.2-.1.4-.1.8-.1 1.3.8-.1 1.7-.1 2.6-.1z" fill="#001b10"/><path d="m82.5 11.7c.8.4 1.6.8 2.5 1.2-.7-1.1-1.4-2.2-2.2-3.2-.1.6-.2 1.3-.3 2" fill="#00130b"/><path d="m86.9 8c-.2-.1-.3-.1-.5-.2.2.2.4.4.6.6 0-.1-.1-.3-.1-.4" fill="#00120c"/><path d="m85 7.4c.2-.1.4-.1.6-.2-.2-.2-.4-.3-.6-.5-.2.2-.4.3-.6.5.2 0 .4.1.6.2z" fill="#004624"/><path d="m85 7.4c-.2-.1-.4-.1-.6-.2-.1.1-.2.1-.2.2z" fill="#002f1b"/><path d="m85 7.4c-.3 0-.6 0-.8 0-.2.2-.4.3-.6.5.4-.2.9-.4 1.4-.5z" fill="#011e13"/><path d="m85.8 7.4c-.1-.1-.2-.1-.2-.2-.2.1-.4.1-.6.2z" fill="#052013"/><path d="m86.4 7.8c-.2-.2-.4-.3-.6-.5-.3 0-.6 0-.8 0 .4.2.9.4 1.4.5" fill="#01170e"/><path d="m87 8.4c-.2-.2-.4-.3-.6-.5-.5-.2-.9-.3-1.4-.5-.5.1-.9.3-1.4.5-.2.1-.4.3-.6.5-.1.4-.1.9-.2 1.3.7 1 1.5 2.1 2.2 3.2.7-1.1 1.4-2.2 2.2-3.2-.1-.5-.2-.9-.2-1.3" fill="#000405"/><path d="m77.6 44.5-.1.1v1h.1.9.1v-1l-.1-.1z" fill="#036f43"/><path d="m77.7 46.8h-.1v5.7c0 .9-.5 1.6-1.4 1.6-.3 0-1 0-1.3-.5h-.1l-.2.1v.1c.3.8 1 1.1 1.6 1.1 1.1 0 2.3-.5 2.3-2.5v-5.7l-.1-.1z" fill="#036f43"/><path d="m66.4 45.6h.1v-1l-.1-.1h-.9l-.1.1v1h.1z" fill="#036f43"/><path d="m64.6 45.6h.1v-1l-.1-.1h-1v.1 1z" fill="#036f43"/><path d="m67.3 48.5c0-1.3-1-2-2.3-2s-2.3.7-2.3 2v2c0 1.3 1 2 2.3 2s2.3-.7 2.3-2zm-.9 1.8c0 .9-.5 1.4-1.3 1.4s-1.3-.5-1.3-1.4v-1.6c0-.9.5-1.4 1.3-1.4s1.3.5 1.3 1.4z" fill="#036f43"/><path d="m73.5 43.5-.1.1v9c.9-.5.9-1.5.9-1.5v-7.7l-.1-.1z" fill="#036f43"/><path d="m70.3 46.8h-.1v5.7c0 .9-.5 1.6-1.4 1.6-.3 0-1 0-1.3-.5h-.1l-.2.1v.1c.3.8 1 1.1 1.6 1.1 1.1 0 2.3-.5 2.3-2.5v-5.7l-.1-.1z" fill="#036f43"/><path d="m84.9 46.6-.8.2s-.7-.4-1.4-.4c-1.2 0-2.3.7-2.3 2v2c0 1.4 1 2.1 2 2.1 1.2 0 1.5-.7 1.6-.9l-.1.5v.4c0 .9-.5 1.6-1.4 1.6-.3 0-1 0-1.3-.5h-.1l-.2.1v.1c.3.8 1 1.1 1.6 1.1 1.1 0 2.3-.5 2.3-2.5zm-.8 4.8c-.2.1-.4.3-1.2.3-.7 0-1.5-.4-1.5-1.4v-1.6c0-.9.7-1.4 1.4-1.4.8 0 1.2.4 1.2 1.2v2.9z" fill="#036f43"/><path d="m58.2 43.5-.1.1v9c.9-.6 1-1.6 1-1.6v-7.7h-.1z" fill="#036f43"/><path d="m56.3 43.3-.8.2h-.1l-.1.1v7.6.1l.1.4h-6.5c-.2-.1-.3-.3-.3-.5v-2.5c0-.9.5-1.4 1.2-1.4h1.1c.7 0 1.2.2 1.3.3h.1v-.2s-.3-1-1.6-1h-1c-1.2 0-2.1.7-2.1 2v2.1c0 .4.1.8.4 1h-3.8v-1.5c0-1.3-1-2-2.3-2s-2.3.7-2.3 2v1.6h-3.7v-8.3h.1l-.8.2h-.1l-.1.1v8.5c0 .9-.3 1.9-1.9 1.9-2 0-1.9-1.7-1.9-1.7 0-.2 0-.4 0-.6s.1-.4.3-.7v-.1l-.1-.1h-.1c-.6.7-.6 1.7-.6 1.7s-.2 2.3 2.5 2.3c2.8 0 2.8-2.3 2.8-2.3h4c.3.8 1.1 1.2 2.1 1.2s1.8-.4 2.1-1.2h11.6l.8-.2.1-.1-.3-1zm-12.9 8.2c0 .9-.5 1.4-1.3 1.4s-1.3-.5-1.3-1.4v-1.3c0-.9.5-1.4 1.3-1.4s1.3.5 1.3 1.4z" fill="#036f43"/><g fill="#956e41"><path d="m38.7 82.1v.6h.6v-.6z"/><path d="m4.4 82.1v.6h.6v-.6z"/><path d="m37.7 82.1h-.1v.6h.1.5.1v-.6h-.1z"/><path d="m5.4 82.1v.6h.6v-.6z"/><path d="m42.8 82.1h-.1v.6h.1.5.1v-.6h-.1z"/><path d="m54.5 76h-.4v4.4.1l.1.2h-4c-.1-.1-.2-.2-.2-.3v-.4-1c0-.5.3-.8.7-.8h.6c.4 0 .7.1.8.2v-.1s-.1-.6-.9-.6h-.6c-.7 0-1.2.4-1.2 1.2v1.2c0 .2.1.5.3.6h-2.9v-2.9l-.6.2h-.1v3.3c0 .5-.3.9-.8.9-.2 0-.6 0-.8-.3l-.1.1c.2.5.7.6 1.1.6.6 0 1.1-.3 1.2-1.3h7.6l.5-.1-.2-.6z"/><path d="m55.7 76-.1 5.3c.5-.3.5-.9.5-.9v-4.4z"/><path d="m44.1 77.9-.5.1v2.5l.1.2h-2.8c-.4 0-.7-.2-.7-.7v-2.1l-.6.1v2c0 .6-.3.7-.7.7h-2.1c-.4 0-.7-.2-.7-.7v-2.4l-.5.1s-.4-.2-.8-.2c-.7 0-1.4.4-1.4 1.2v1.2c0 .8.6 1.2 1.2 1.2.7 0 .9-.4 1-.5.1.5.5.8 1 .8h2.4c.3 0 .6-.1.8-.3.2.2.5.3.8.3h3.2l.5-.1-.2-.6zm-8.7 2.5c-.1.1-.2.2-.7.2-.4 0-.8-.2-.8-.8v-1c0-.5.4-.8.8-.8.5 0 .7.2.7.7z"/><path d="m35.7 76.9v-.1-.5-.1h-.6v.1.5.1z"/><path d="m34.6 76.9v-.1-.5-.1h-.6v.1.5.1z"/><path d="m1.8 76.9v-.1-.5-.1h-.6v.1.5.1z"/><path d="m2.8 76.9.1-.1v-.5l-.1-.1h-.5l-.1.1v.5l.1.1z"/><path d="m29.2 76h-.5v4.4.1l.1.2h-1.5c-.4 0-.7-.1-.9-.1 0-.1.1-.3.1-.5v-1.8l-.4.1v1.6c0 .6-.3.8-.7.8-.2 0-.6-.1-.7-.1 0-.1.1-.3.1-.5v-1.9l-.8.1v1.6c0 .6-.3.8-.7.8-.1 0-.6-.1-.7-.2v-2.4l-.4.1v2.1l-.1.2h-3.9c-.1-.1-.2-.2-.2-.3v-1.4c0-.5.3-.8.7-.8h.6c.4 0 .7.1.8.2v-.1s-.2-.6-.9-.6h-.6c-.7 0-1.2.4-1.2 1.2v1.2c0 .2.1.5.3.6h-2.3c-.2 0-.3 0-.4-.1v-2.8l-.6.3s-.4-.2-.8-.2c-.7 0-1.4.4-1.4 1.2v1.2c0 .8.6 1.2 1.2 1.2.7 0 .9-.4 1-.5v.3.2c0 .5-.3.9-.8.9-.2 0-.6 0-.8-.3h-.1c.2.5.7.6 1.1.6.6 0 1.2-.3 1.2-1.4.1.1.3.1.5.1h6.9l.2-.5c0 .1.2.6 1 .6.4 0 .7-.2.9-.5.1.1.3.5 1 .5.4 0 .7-.2.9-.5.1.2.4.5 1 .5h1.7l.5-.1-.2-.6v-4.7zm-14.8 4.7c-.1 0-.2.2-.7.2-.4 0-.9-.2-.9-.8v-1c0-.5.4-.8.8-.8.5 0 .7.2.7.7v1.7z"/><path d="m6.8 77.9-.5.1v2.5l.1.2h-2.5c-.4 0-.7-.2-.7-.7v-1-1.4l-.5.1s-.4-.2-.8-.2c-.7 0-1.4.4-1.4 1.2v1.2c0 .8.6 1.2 1.2 1.2.7 0 .9-.4 1-.5.1.5.5.8 1 .8h2.9l.4-.2-.2-.6zm-4.2 1.1v1.2.3c-.1.1-.2.2-.7.2-.4 0-.9-.2-.9-.8v-1c0-.6.5-.9.9-.9.5 0 .7.2.7.7z"/><path d="m11.1 79c0-.8-.5-1.2-1.2-1.2h-.7c-.8 0-.9.6-.9.6v.1c.1 0 .4-.2.8-.2h.6c.4 0 .7.3.7.8v1.5l.1.2h-1.7c-.5 0-.9-.1-1-.2v.1c.1.1.3.6 1 .6h2l.5-.1-.2-.6z"/><path d="m30.3 76-.1 5.3c.5-.3.6-.9.6-.9v-4.4z"/><path d="m60 76.9v-.1-.5-.1h-.6v.1.5.1z"/><path d="m61 76.9.1-.1v-.5l-.1-.1h-.5l-.1.1v.5l.1.1z"/><path d="m84.9 75.9-.4.1v5.2c.5-.2.5-.8.5-.8z"/><path d="m83.4 76h-.5v4.5l.1.2h-2.1v-.9c0-.8-.6-1.2-1.3-1.2s-1.3.4-1.3 1.2v.9h-2.3v-.9c0-.8-.6-1.2-1.3-1.2-.8 0-1.3.4-1.3 1.2v.9h-1.4c-.4 0-.7-.2-.7-.7v-4.1l-.6.1v4c0 .6-.3.7-.7.7h-2c.2-.1.3-.4.3-.6v-.8c0-.8-.5-1.2-1.2-1.2h-.6-2c-.4 0-.6-.2-.6-.7v-.3c0-.4.2-.6.6-.6h.4c.4 0 .7.1.8.2v-.1s-.1-.6-.9-.6h-.3c-.7 0-1.2.4-1.2 1.1v.5c0 .7.5 1.1 1.2 1.1h2.5c.4 0 .7.3.7.8v1c0 .1-.1.2-.2.3h-5.4c-.4 0-.7-.2-.7-.7v-1-1.4l-.5.1s-.4-.2-.8-.2c-.7 0-1.4.4-1.4 1.2v1.2c0 .8.6 1.2 1.2 1.2.7 0 .9-.4 1-.5.1.5.5.8 1 .8h8.3c.3 0 .6-.1.8-.3.2.2.5.3.8.3h1.8c.2.5.6.7 1.2.7s1-.2 1.2-.7h2.3c.2.5.6.7 1.2.7s1-.2 1.2-.7h2.3l.5-.1-.2-.6v-4.8zm-22.6 3v1.2.3c-.1.1-.2.2-.7.2-.4 0-.8-.2-.8-.8v-1c0-.5.4-.8.8-.8.5 0 .7.2.7.7zm14.7 1.7c0 .5-.3.8-.8.8s-.8-.3-.8-.8v-.7c0-.5.3-.8.8-.8s.8.3.8.8zm4.7 0c0 .5-.3.8-.8.8s-.8-.3-.8-.8v-.7c0-.5.3-.8.8-.8s.8.3.8.8z"/></g><g fill="#036f43"><path d="m84.9 63.1-.8.2s-.7-.4-1.4-.4c-1.2 0-2.3.7-2.3 2v2c0 1.4 1 2.1 2 2.1 1.2 0 1.5-.7 1.6-.9l-.1.5v.4c0 .9-.5 1.6-1.4 1.6-.3 0-1 0-1.3-.5h-.1l-.2.1v.1c.3.8 1 1.1 1.6 1.1 1.1 0 2.3-.5 2.3-2.5zm-.8 4.8c-.2.1-.4.3-1.2.3-.7 0-1.5-.4-1.5-1.4v-1.6c0-.9.7-1.4 1.4-1.4.8 0 1.2.4 1.2 1.2v2.9z"/><path d="m4 61.5v-1-.1h-1l-.1.1v1h.1z"/><path d="m2.3 61.5h.1v-1l-.1-.1h-1v.1 1z"/><path d="m15.5 67.6c-.1 0-.3.1-.4.1s-.2.1-.3.1h-1.3c-.4 0-.7-.1-1-.4-.2-.2-.3-.6-.3-1v-1.5c0-.5.1-.8.3-1s.5-.3 1-.3c.4 0 .7.1.9.3s.3.5.4 1v.1h.8l.1-.1v-.1c0-.3-.1-.6-.2-.9s-.3-.5-.5-.6c-.2-.2-.4-.3-.7-.4s-.6-.1-.9-.1-.6 0-.9.1-.5.2-.7.4-.4.4-.5.6c-.1.3-.2.5-.2.9v1.9c0 .5.1.9.4 1.2h-.5-.2-.2-2.1v-4.9h-.1l-.8.1-.1.1v4.8h-2.7v-4.9l-.1-.1h-.7c-.1-.1-.3-.1-.4-.2-.1 0-.3-.1-.4-.1-.2 0-.3-.1-.5-.1-.3 0-.6 0-.8.1-.3.1-.5.2-.7.4s-.3.4-.4.6c-.1.3-.2.5-.2.9v2c0 .7.2 1.2.5 1.5s.8.5 1.3.5c.3 0 .5 0 .7-.1s.4-.2.5-.3.2-.2.3-.3.1-.2.1-.2l-.1.6v.3h6.7.2 3.6c.3 0 .5 0 .7-.1s.3-.1.5-.2c.1-.1.2-.2.3-.3s.1-.3.2-.4v-.2c-.3.1-.5.1-.6.2zm-11.6 0c-.1 0-.1 0-.2.1-.1 0-.2.1-.3.1s-.2.1-.3.1-.2 0-.3 0c-.2 0-.3 0-.5-.1-.2 0-.3-.1-.4-.2s-.2-.3-.3-.4c-.1-.2-.1-.4-.1-.6v-1.6c0-.5.1-.8.3-1s.5-.4.9-.4c.8 0 1.2.4 1.2 1.2z"/><path d="m27.7 61.5.1-.1v-.9l-.1-.1h-.9l-.1.1v.9l.1.1z"/><path d="m29.4 61.5.1-.1v-.9l-.1-.1h-1v.1.9.1z"/><path d="m32.9 70.2h-.1v1l.1.1h1v-.1-1z"/><path d="m35.9 67.1v-2.4c0-.3-.1-.6-.2-.9s-.3-.5-.5-.6c-.2-.2-.4-.3-.7-.4s-.6-.1-.9-.1h-.9c-.3 0-.5 0-.7.1s-.3.1-.5.2c-.1.1-.2.2-.3.3s-.1.2-.2.3v.2c.2-.1.3-.1.5-.2.1 0 .3-.1.4-.1s.2-.1.3-.1h1.2c.4 0 .7.1 1 .3.2.2.3.6.3 1v.9 2h-.9-5.6v-4.9h-.1l-.8.1-.1.1v4.8h-2.2v-1.6c0-1.3-1-2-2.3-2s-2.3.7-2.3 2v1.6h-1.4c-.4 0-.6-.1-.8-.3s-.3-.6-.3-1v-6.9h-.1-.8l-.1.1v7.1c0 .3.1.6.2.9s.3.5.5.6c.2.2.4.3.7.4s.4.1.8.1h.1.1 1.4c.3.8 1.1 1.2 2.1 1.2s1.8-.4 2.1-1.2h6.4 4.2l.7-.1.1-.1-.3-1v-.4zm-11.8.6c0 .9-.5 1.4-1.3 1.4s-1.3-.5-1.3-1.4v-1.3c0-.9.5-1.4 1.3-1.4s1.3.5 1.3 1.4z"/><path d="m42 59.5v6.9c0 .5-.1.8-.3 1s-.6.4-1 .4h-.4l-.1-.4v-7.9h-.1l-.8.1-.1.1v8.1h-.9c-.1 0-.2 0-.3-.1-.1 0-.3-.1-.4-.1s-.3-.1-.5-.2v.2c0 .1.1.3.2.4l.3.3c.1.1.3.2.5.2.2.1.4.1.6.1h2c.3 0 .6 0 .9-.1s.5-.2.7-.4.4-.4.5-.6c.1-.3.2-.5.2-.9v-7.2h-.1z"/><path d="m44.8 59.5v.1 8.9.1h.8l.1-.1v-9l-.1-.1z"/><path d="m51.2 61.5h.1v-1l-.1-.1h-1v.1 1z"/><path d="m52.9 61.5v-1-.1h-1l-.1.1v1h.1z"/><path d="m55.6 70.2h-.1v1l.1.1h1v-.1-1z"/><path d="m57.3 70.2h-.1v1l.1.1h.9l.1-.1v-1h-.1z"/><path d="m6.7 70.2h-.1v1l.1.1h1v-.1-1z"/><path d="m8.4 70.2h-.1v1l.1.1h.9l.1-.1v-1h-.1z"/><path d="m68.4 61.5v-1-.1h-1l-.1.1v1h.1z"/><path d="m71.2 61.5.1-.1v-.9l-.1-.1h-1v.1.9.1z"/><path d="m72.9 61.5v-.1-.9-.1h-1l-.1.1v.9l.1.1z"/><path d="m77.7 59.6-.1.1v9c.9-.5.9-1.5.9-1.5v-7.7l-.1-.1z"/><path d="m75.7 59.5-.8.2h-.1l-.1.1v7.6.1l.1.4h-2.8v-4.9h-.1l-.8.1-.1.1v4.8h-2.8v-4.9h-.1l-.8.1-.1.1v4.8h-1-1.7v-1.6c0-1.3-1-2-2.3-2s-2.3.7-2.3 2v1.6h-2.7v-4.9h-.1l-.8.1-.1.1v4.8h-2.6-.1v-4.9l-.1-.1-.5-.2c-.1-.1-.3-.1-.4-.2-.1 0-.3-.1-.4-.1-.2 0-.3-.1-.5-.1-.3 0-.6 0-.8.1-.3.1-.5.2-.7.4s-.3.4-.4.6c-.1.3-.2.5-.2.9v2c0 .7.2 1.2.5 1.5s.8.5 1.3.5c.3 0 .5 0 .7-.1s.4-.2.5-.3.2-.2.3-.3.1-.2.1-.2l-.1.5v.4h7.5c.3.8 1.1 1.2 2.1 1.2s1.8-.4 2.1-1.2h10.7l.8-.2.1-.1-.3-1zm-22.9 8.1c-.1 0-.1 0-.2.1-.1 0-.2.1-.3.1s-.2.1-.3.1-.2 0-.3 0c-.2 0-.3 0-.5-.1-.2 0-.3-.1-.4-.2s-.2-.3-.3-.4c-.1-.2-.1-.4-.1-.6v-1.6c0-.5.1-.8.3-1s.5-.4.9-.4c.8 0 1.2.4 1.2 1.2zm10.9.1c0 .9-.5 1.4-1.3 1.4s-1.3-.5-1.3-1.4v-1.3c0-.9.5-1.4 1.3-1.4s1.3.5 1.3 1.4z"/></g></svg>