
<svg xmlns="http://www.w3.org/2000/svg" viewBox="0 0 263.09 208.5"><defs><style>.cls-1,.cls-2,.cls-3,.cls-4,.cls-5{fill:#fff;}.cls-2{opacity:0.95;}.cls-3{opacity:0.45;}.cls-4{opacity:0.85;}.cls-5{opacity:0.7;}</style></defs><title>Asset 1</title><g id="Layer_2" data-name="Layer 2"><g id="Layer_1-2" data-name="Layer 1"><polygon class="cls-1" points="195.15 111.82 195 111.96 195 114.44 195.15 114.59 197.62 114.59 197.77 114.44 197.77 111.96 197.62 111.82 195.15 111.82"/><path class="cls-1" d="M195.46,117.61l-.27.07v14.46c0,2.24-1.21,4-3.47,4-.84,0-2.52-.11-3.29-1.33l-.15-.05-.44.22-.07.17a4.33,4.33,0,0,0,4,2.82c2.77,0,5.79-1.25,5.79-6.39V117.22l-.14-.15Z"/><polygon class="cls-1" points="166.98 114.59 167.13 114.44 167.13 111.97 166.98 111.82 164.5 111.82 164.35 111.97 164.35 114.44 164.5 114.59 166.98 114.59"/><polygon class="cls-1" points="162.41 114.59 162.56 114.44 162.56 111.97 162.41 111.82 159.93 111.82 159.78 111.97 159.78 114.44 159.93 114.59 162.41 114.59"/><path class="cls-1" d="M169.18,121.84c0-3.34-2.45-5.16-5.72-5.16s-5.73,1.82-5.73,5.16V127c0,3.34,2.44,5.16,5.73,5.16s5.72-1.82,5.72-5.16Zm-2.39,4.62c0,2.3-1.24,3.52-3.33,3.52s-3.35-1.22-3.35-3.52v-4.14c0-2.3,1.2-3.49,3.35-3.49s3.33,1.19,3.33,3.49Z"/><path class="cls-1" d="M185,109.19l-.13,0-.14.15v22.76a5.15,5.15,0,0,0,2.39-3.85V108.8l-.2-.13Z"/><path class="cls-1" d="M176.73,117.61l-.26.07v14.46c0,2.24-1.22,4-3.47,4-.85,0-2.52-.11-3.29-1.33l-.15-.05-.45.22-.07.17a4.37,4.37,0,0,0,4,2.83c2.77,0,5.8-1.26,5.8-6.4V117.22l-.15-.15Z"/><path class="cls-1" d="M213.87,117.07l-2,.54a8.08,8.08,0,0,0-3.43-.93c-3.07,0-5.9,1.82-5.92,5.16v5.07a4.92,4.92,0,0,0,5.08,5.22c3,0,3.91-1.79,4.15-2.33l-.15,1.32v1c0,2.24-1.21,4-3.47,4-.85,0-2.52-.11-3.29-1.33l-.15-.06-.45.23-.06.17a4.35,4.35,0,0,0,4,2.82c2.77,0,5.79-1.25,5.79-6.39V117.22Zm-2.24,12.23a5,5,0,0,1-3,.68c-1.76,0-3.69-.92-3.69-3.49v-4.15a3.42,3.42,0,0,1,3.59-3.51c2,0,3.08,1.07,3.08,3.16Z"/><path class="cls-1" d="M146.22,109.19l-.13,0-.14.15v22.76a5.15,5.15,0,0,0,2.39-3.85V108.8l-.21-.13Z"/><path class="cls-1" d="M141.25,108.8l-.14-.13-2,.52-.13,0-.14.15v19.48l.25.89H122.65a1.57,1.57,0,0,1-.78-1.19v-6.2c0-2.3,1.29-3.52,3.13-3.52h2.72a6.93,6.93,0,0,1,3.39.82l.16-.09.09-.38s-.65-2.49-4-2.49h-2.48c-3.07,0-5.42,1.82-5.42,5.16v5.3a3,3,0,0,0,1.11,2.6H111v-4c0-3.35-2.44-5.17-5.73-5.17s-5.72,1.82-5.72,5.17v4H90.18V108.82l-.14-.15-2,.54-.13,0-.14.15V131c0,2.26-.68,4.78-4.74,4.78-5.15,0-4.82-4.33-4.82-4.33a8.26,8.26,0,0,1,.12-1.54,6.15,6.15,0,0,1,.64-1.75l-.07-.2-.3-.14-.2,0a7.12,7.12,0,0,0-1.55,4.35s-.45,5.75,6.26,5.75c7,0,7-5.8,7-5.8h9.78c.82,2,2.82,3,5.31,3s4.5-1.06,5.33-3h29.26l2-.48.15-.17-.74-2.63Zm-32.66,20.69c0,2.29-1.26,3.52-3.35,3.52s-3.33-1.23-3.33-3.52v-3.3c0-2.3,1.18-3.49,3.33-3.49s3.35,1.19,3.35,3.49Z"/><polygon class="cls-1" points="96.78 206.88 96.69 206.97 96.69 208.42 96.78 208.5 98.22 208.5 98.3 208.42 98.3 206.97 98.22 206.88 96.78 206.88"/><polygon class="cls-1" points="9.84 206.88 9.76 206.97 9.76 208.42 9.84 208.5 11.29 208.5 11.37 208.42 11.37 206.97 11.29 206.88 9.84 206.88"/><polygon class="cls-1" points="94.11 206.88 94.03 206.97 94.03 208.42 94.11 208.5 95.55 208.5 95.64 208.42 95.64 206.97 95.55 206.88 94.11 206.88"/><polygon class="cls-1" points="12.51 206.88 12.42 206.97 12.42 208.42 12.51 208.5 13.95 208.5 14.04 208.42 14.04 206.97 13.95 206.88 12.51 206.88"/><polygon class="cls-1" points="107.06 206.88 106.98 206.97 106.98 208.42 107.06 208.5 108.51 208.5 108.59 208.42 108.59 206.97 108.51 206.88 107.06 206.88"/><path class="cls-1" d="M136.89,191.44l-.09-.08-1.15.31-.07,0-.08.08v11.35l.14.52H125.42A.94.94,0,0,1,125,203v-3.62a1.8,1.8,0,0,1,1.83-2.05h1.58a4.06,4.06,0,0,1,2,.47l.09-.05.05-.22a2.21,2.21,0,0,0-2.31-1.45h-1.45a2.89,2.89,0,0,0-3.16,3v3.08a1.76,1.76,0,0,0,.65,1.52h-7.28v-7.3l-.08-.08-1.15.31-.16,0V205a2,2,0,0,1-2,2.3,2.25,2.25,0,0,1-1.92-.77l-.09,0-.26.13,0,.1a3,3,0,0,0,2.68,1.64c1.55,0,2.89-.68,3-3.38h19.13l1.18-.28.08-.1-.43-1.53Z"/><path class="cls-1" d="M139.77,191.67l-.07,0-.08.08V205a3,3,0,0,0,1.39-2.24V191.44l-.11-.08Z"/><path class="cls-1" d="M110.45,196.33l-.09-.07-1.15.3-.07,0-.08.08v6.46l.15.52H102a1.66,1.66,0,0,1-1.88-1.89v-5.42l-.08-.07-1.15.3-.08,0-.08.08v5.09a1.65,1.65,0,0,1-1.87,1.89H91.69a1.65,1.65,0,0,1-1.87-1.89v-6.07l-.09-.1-1.14.32a4.76,4.76,0,0,0-2-.54c-1.79,0-3.43,1.06-3.44,3v3a2.86,2.86,0,0,0,3,3A2.4,2.4,0,0,0,88.55,203h0a2.48,2.48,0,0,0,2.55,2h6.38a2.52,2.52,0,0,0,2-.86,2.5,2.5,0,0,0,2,.86h8.16l1.18-.28.09-.1-.43-1.53Zm-22,6.37a2.8,2.8,0,0,1-1.74.4,2,2,0,0,1-2.15-2v-2.41a2,2,0,0,1,2.1-2,1.63,1.63,0,0,1,1.79,1.84Z"/><polygon class="cls-1" points="89.06 193.77 89.14 193.69 89.14 192.24 89.06 192.15 87.61 192.15 87.53 192.24 87.53 193.69 87.61 193.77 89.06 193.77"/><polygon class="cls-1" points="86.39 193.77 86.48 193.69 86.48 192.24 86.39 192.15 84.94 192.15 84.86 192.24 84.86 193.69 84.94 193.77 86.39 193.77"/><polygon class="cls-1" points="3.24 193.77 3.33 193.68 3.33 192.24 3.24 192.16 1.79 192.16 1.71 192.24 1.71 193.68 1.79 193.77 3.24 193.77"/><polygon class="cls-1" points="5.9 193.77 5.99 193.68 5.99 192.24 5.9 192.16 4.46 192.16 4.38 192.24 4.38 193.68 4.46 193.77 5.9 193.77"/><path class="cls-1" d="M72.68,191.44l-.09-.08-1.15.31-.07,0-.09.08v11.35l.15.52H67.67a8.34,8.34,0,0,1-2.32-.33,3.85,3.85,0,0,0,.19-1.29v-4.66h0l-.12-.08-1.12.3-.07,0,0,0v4.1a1.75,1.75,0,0,1-1.85,2,10,10,0,0,1-1.8-.38,4.32,4.32,0,0,0,.19-1.21v-4.83l-.12-.08-1.11.31-.08,0-.08.08h0v4.08c0,1.49-.7,2-1.69,2a11.13,11.13,0,0,1-1.77-.4v-6l-.12-.08-1.12.31-.07,0-.08.08V203l-.17.63h-9.8A.92.92,0,0,1,44,203v-3.62c0-1.34.74-2.05,1.83-2.05h1.57a4.06,4.06,0,0,1,2,.47l.09-.05,0-.22A2.21,2.21,0,0,0,47.24,196H45.8a2.89,2.89,0,0,0-3.16,3v3.08a1.76,1.76,0,0,0,.65,1.52H37.54c-.62,0-.86-.09-1-.25v-7l-.08-.08-1.15.31a4.76,4.76,0,0,0-2-.54c-1.79,0-3.44,1.06-3.45,3v3a2.87,2.87,0,0,0,3,3,2.4,2.4,0,0,0,2.42-1.35l-.09.76v.6a2,2,0,0,1-2,2.3,2.26,2.26,0,0,1-1.92-.77l-.09,0-.26.13,0,.1a3,3,0,0,0,2.69,1.64c1.59,0,3-.71,3-3.6a3.34,3.34,0,0,0,1.23.22H55.17l.1-.07.49-1.34A2.33,2.33,0,0,0,58.2,205a2.21,2.21,0,0,0,2.15-1.29A2.72,2.72,0,0,0,62.89,205a2.48,2.48,0,0,0,2.27-1.29A2.64,2.64,0,0,0,67.57,205h4.27l1.19-.28.09-.1-.44-1.53ZM35.13,203.38a2.89,2.89,0,0,1-1.73.4,2,2,0,0,1-2.16-2v-2.42a2,2,0,0,1,2.1-2.05,1.63,1.63,0,0,1,1.79,1.84Z"/><path class="cls-1" d="M16,196.33l-.08-.07-1.15.3-.07,0-.09.08v6.46l.14.52H8.55a1.66,1.66,0,0,1-1.88-1.89v-6.07l-.09-.1-1.15.32a4.7,4.7,0,0,0-2-.54c-1.78,0-3.42,1.06-3.43,3v3a2.86,2.86,0,0,0,3,3A2.45,2.45,0,0,0,5.41,203h0A2.48,2.48,0,0,0,8,205H15.2l1.18-.28.08-.1L16,203.12ZM5.28,199v3.67a2.88,2.88,0,0,1-1.74.4,2,2,0,0,1-2.15-2v-2.42a2,2,0,0,1,2.1-2,1.63,1.63,0,0,1,1.79,1.84Z"/><path class="cls-1" d="M26.75,199a2.9,2.9,0,0,0-3.17-3H22.14a2.21,2.21,0,0,0-2.31,1.45l.05.22.09.05a4,4,0,0,1,2-.47h1.58c1.08,0,1.82.71,1.82,2.05v3.79l.15.52H20.94a7.67,7.67,0,0,1-2.51-.4l-.12.27A2.65,2.65,0,0,0,20.79,205h5.12l1.18-.28.09-.1-.43-1.53Z"/><path class="cls-1" d="M75.57,191.67l-.08,0-.08.08V205a3,3,0,0,0,1.39-2.24V191.44l-.12-.08Z"/><polygon class="cls-1" points="150.61 193.77 150.7 193.68 150.7 192.25 150.61 192.16 149.17 192.16 149.08 192.25 149.08 193.68 149.17 193.77 150.61 193.77"/><polygon class="cls-1" points="153.28 193.77 153.37 193.68 153.37 192.25 153.28 192.16 151.84 192.16 151.75 192.25 151.75 193.68 151.84 193.77 153.28 193.77"/><path class="cls-1" d="M213.87,191.36l-1.11.3-.08,0-.08.08V205a3,3,0,0,0,1.39-2.24V191.43Z"/><path class="cls-1" d="M209.86,191.43l-.08-.07-1.15.3-.08,0-.08.08v11.35l.15.52h-5.33v-2.33c0-1.94-1.43-3-3.34-3s-3.34,1.07-3.34,3v2.33h-5.3v-2.33c0-1.94-1.43-3-3.34-3s-3.33,1.07-3.33,3v2.33H181a1.65,1.65,0,0,1-1.87-1.89V191.43l-.08-.07-1.15.3-.07,0-.09.08v10a1.65,1.65,0,0,1-1.87,1.89H170.9a1.77,1.77,0,0,0,.66-1.52v-1.93a2.9,2.9,0,0,0-3.17-3H162c-1.13,0-1.61-.52-1.61-1.71v-.77c0-1.13.51-1.59,1.61-1.59h.94a4.06,4.06,0,0,1,2,.47l.09,0,0-.23a2.19,2.19,0,0,0-2.3-1.45H162c-1.72,0-3,.95-3,2.7v1.18c0,1.75,1.29,2.7,3,2.7h6.39a1.8,1.8,0,0,1,1.83,2.06V203a.94.94,0,0,1-.46.69H155.92a1.65,1.65,0,0,1-1.87-1.89v-2.42h0v-3.66l-.08-.09-1.15.32a4.7,4.7,0,0,0-2-.54c-1.79,0-3.43,1.06-3.45,3v2.95a2.88,2.88,0,0,0,3,3,2.45,2.45,0,0,0,2.45-1.35h0a2.49,2.49,0,0,0,2.55,2h21.11a2.51,2.51,0,0,0,2-.85,2.53,2.53,0,0,0,2,.85h4.47a3.6,3.6,0,0,0,6.21,0h5.76a3.61,3.61,0,0,0,6.22,0h6l1.17-.28.09-.1-.44-1.53ZM152.65,199v3.67a2.85,2.85,0,0,1-1.74.4,2,2,0,0,1-2.15-2v-2.41a2,2,0,0,1,2.1-2,1.62,1.62,0,0,1,1.79,1.84Zm37.27,4.47a2,2,0,1,1-3.9,0v-1.92a2,2,0,1,1,3.9,0Zm12,0a1.81,1.81,0,0,1-2,2.05,1.79,1.79,0,0,1-1.94-2.05v-1.92a1.79,1.79,0,0,1,1.94-2,1.81,1.81,0,0,1,2,2Z"/><path class="cls-1" d="M213.87,158.89l-2,.54a8.08,8.08,0,0,0-3.43-.93c-3.07,0-5.9,1.82-5.92,5.16v5.07a4.92,4.92,0,0,0,5.08,5.22c3,0,3.91-1.79,4.15-2.33l-.15,1.32v1c0,2.24-1.21,4-3.47,4-.85,0-2.52-.11-3.29-1.33l-.15-.06-.45.23-.06.17a4.35,4.35,0,0,0,4,2.82c2.77,0,5.79-1.26,5.79-6.4V159Zm-2.24,12.23a5,5,0,0,1-3,.68c-1.76,0-3.69-.92-3.69-3.49v-4.15a3.42,3.42,0,0,1,3.59-3.51c2,0,3.08,1.07,3.08,3.16Z"/><polygon class="cls-1" points="8.8 154.85 8.95 154.7 8.95 152.24 8.8 152.09 6.34 152.09 6.2 152.24 6.2 154.7 6.34 154.85 8.8 154.85"/><polygon class="cls-1" points="4.57 154.85 4.72 154.7 4.72 152.24 4.57 152.09 2.11 152.09 1.97 152.24 1.97 154.7 2.11 154.85 4.57 154.85"/><path class="cls-1" d="M37.94,170.2l-1,.29a3.71,3.71,0,0,1-.8.13H32.76a3.3,3.3,0,0,1-2.46-.89,3.6,3.6,0,0,1-.85-2.6v-3.76a3.55,3.55,0,0,1,.85-2.59,3.33,3.33,0,0,1,2.46-.87,3.28,3.28,0,0,1,2.4.84,3.47,3.47,0,0,1,.91,2.47l.12.15h2.1l.15-.15v-.33a5.3,5.3,0,0,0-.43-2.2,4.42,4.42,0,0,0-1.18-1.6,5.24,5.24,0,0,0-1.81-1,7.68,7.68,0,0,0-4.52,0,5.24,5.24,0,0,0-1.81,1,4.42,4.42,0,0,0-1.18,1.6,5.3,5.3,0,0,0-.43,2.2v4.74a5,5,0,0,0,.89,3H20.21V158.1l-.14-.12-2.07.3-.15.18v12.16h-7V158.31l-.15-.15-1.95.53-1-.44a9.16,9.16,0,0,0-1.1-.33,6,6,0,0,0-1.27-.14,6.34,6.34,0,0,0-2.13.34,5,5,0,0,0-1.7,1,4.33,4.33,0,0,0-1.14,1.6,5.46,5.46,0,0,0-.42,2.2v5a5.29,5.29,0,0,0,1.3,3.87,4.42,4.42,0,0,0,3.26,1.3,5.36,5.36,0,0,0,1.88-.28,4,4,0,0,0,1.21-.66,3.46,3.46,0,0,0,.7-.77,5.61,5.61,0,0,0,.32-.59l-.15,1.57V173H35.28a5.17,5.17,0,0,0,1.67-.24,4.27,4.27,0,0,0,1.17-.59,3,3,0,0,0,.74-.79,7.12,7.12,0,0,0,.41-1.11l-.12-.5C38.72,170,38.31,170.09,37.94,170.2Zm-29.41.09-.6.18-.84.22-.86.19a3.37,3.37,0,0,1-.65.09,4.4,4.4,0,0,1-1.23-.17,2.51,2.51,0,0,1-1-.6,2.7,2.7,0,0,1-.7-1.08,4.5,4.5,0,0,1-.25-1.61V163.4a3.63,3.63,0,0,1,.86-2.61,3,3,0,0,1,2.25-.88q3,0,3,3.13Z"/><polygon class="cls-1" points="68.98 154.82 69.13 154.67 69.13 152.21 68.98 152.06 66.53 152.06 66.38 152.21 66.38 154.67 66.53 154.82 68.98 154.82"/><polygon class="cls-1" points="73.22 154.82 73.36 154.67 73.36 152.21 73.22 152.06 70.76 152.06 70.61 152.21 70.61 154.67 70.76 154.82 73.22 154.82"/><polygon class="cls-1" points="82.05 176.8 81.9 176.95 81.9 179.41 82.05 179.56 84.5 179.56 84.65 179.41 84.65 176.95 84.5 176.8 82.05 176.8"/><path class="cls-1" d="M89.66,169.1v-6.17a5.31,5.31,0,0,0-.43-2.21,4.42,4.42,0,0,0-1.18-1.6,5.41,5.41,0,0,0-1.81-1,7.18,7.18,0,0,0-2.26-.34H81.8a5.34,5.34,0,0,0-1.71.24,4,4,0,0,0-1.2.59,3,3,0,0,0-1.2,1.62l.12.51c.43-.16.84-.3,1.21-.42l1-.28a3.18,3.18,0,0,1,.82-.13H84a3.33,3.33,0,0,1,2.46.87,3.56,3.56,0,0,1,.85,2.59v7.13l0,.12H71.06V158.13l-.15-.11-2.07.29-.15.18v12.16H62v-4c0-3.35-2.45-5.16-5.73-5.16s-5.72,1.81-5.72,5.16v4H46.83a2.5,2.5,0,0,1-2-.89,3.57,3.57,0,0,1-.88-2.6V149.69l-.14-.12-2.07.3-.15.17v17.87a5.31,5.31,0,0,0,.43,2.21,4.42,4.42,0,0,0,1.18,1.6,5.19,5.19,0,0,0,1.8,1,5.31,5.31,0,0,0,1.94.34H51c.82,2,2.83,3,5.32,3s4.5-1.06,5.32-3H88.48l1.77-.26.15-.18-.74-2.6Zm-30,1.29c0,2.3-1.26,3.53-3.35,3.53S53,172.69,53,170.39V167.1c0-2.3,1.19-3.5,3.34-3.5s3.35,1.2,3.35,3.5Z"/><path class="cls-1" d="M105.18,149.87,105,150v17.09a3.57,3.57,0,0,1-.87,2.6,3.29,3.29,0,0,1-2.44.89h-1l-.27-.92v-20l-.14-.12-2.08.3-.14.17V170.5l.06.12H95.87a3.53,3.53,0,0,1-.81-.13l-1-.29c-.38-.11-.78-.25-1.22-.41l-.12.5a4.87,4.87,0,0,0,.4,1.1,3.25,3.25,0,0,0,.76.77,4,4,0,0,0,1.17.59,5.56,5.56,0,0,0,1.64.27h5a7.53,7.53,0,0,0,2.26-.34,5.21,5.21,0,0,0,1.8-1,4.36,4.36,0,0,0,1.19-1.6,5.43,5.43,0,0,0,.43-2.2V149.69l-.15-.12Z"/><polygon class="cls-1" points="112.24 149.87 112.09 150.04 112.09 172.6 112.21 172.75 114.31 172.75 114.46 172.6 114.46 149.69 114.31 149.57 112.24 149.87"/><polygon class="cls-1" points="128.41 154.85 128.55 154.7 128.55 152.24 128.41 152.09 125.95 152.09 125.8 152.24 125.8 154.7 125.95 154.85 128.41 154.85"/><polygon class="cls-1" points="132.64 154.85 132.79 154.7 132.79 152.24 132.64 152.09 130.18 152.09 130.03 152.24 130.03 154.7 130.18 154.85 132.64 154.85"/><polygon class="cls-1" points="139.51 176.8 139.37 176.95 139.37 179.41 139.51 179.56 141.97 179.56 142.12 179.41 142.12 176.95 141.97 176.8 139.51 176.8"/><polygon class="cls-1" points="143.75 176.8 143.6 176.95 143.6 179.41 143.75 179.56 146.2 179.56 146.35 179.41 146.35 176.95 146.2 176.8 143.75 176.8"/><polygon class="cls-1" points="15.69 176.8 15.54 176.95 15.54 179.41 15.69 179.56 18.14 179.56 18.29 179.41 18.29 176.95 18.14 176.8 15.69 176.8"/><polygon class="cls-1" points="19.92 176.8 19.77 176.95 19.77 179.41 19.92 179.56 22.38 179.56 22.52 179.41 22.52 176.95 22.38 176.8 19.92 176.8"/><polygon class="cls-1" points="171.85 154.85 172 154.7 172 152.24 171.85 152.09 169.39 152.09 169.24 152.24 169.24 154.7 169.39 154.85 171.85 154.85"/><polygon class="cls-1" points="179.07 154.82 179.22 154.67 179.22 152.21 179.07 152.06 176.62 152.06 176.47 152.21 176.47 154.67 176.62 154.82 179.07 154.82"/><polygon class="cls-1" points="183.3 154.82 183.45 154.67 183.45 152.21 183.3 152.06 180.85 152.06 180.7 152.21 180.7 154.67 180.85 154.82 183.3 154.82"/><path class="cls-1" d="M195.44,150.09l-.12,0-.14.14V173a5.14,5.14,0,0,0,2.38-3.86V149.7l-.2-.13Z"/><path class="cls-1" d="M190.48,149.71l-.15-.14-2,.52-.13,0-.14.14v19.48l.25.9h-7.21V158.13L181,158l-2.08.3-.14.17v12.17h-7V158.13l-.14-.12-2.08.3-.14.17v12.17h-7v-4c0-3.35-2.44-5.16-5.73-5.16s-5.72,1.81-5.72,5.16v4H144V158.13l-.15-.12-2.07.3-.15.18v12.16h-6.93V158.34l-.15-.15-2,.53c-.34-.15-.68-.3-1-.44a9,9,0,0,0-1.09-.33,6,6,0,0,0-1.27-.14,6.34,6.34,0,0,0-2.13.34,5.14,5.14,0,0,0-1.71,1,4.42,4.42,0,0,0-1.13,1.6,5.46,5.46,0,0,0-.42,2.2v5a5.25,5.25,0,0,0,1.3,3.87,4.42,4.42,0,0,0,3.26,1.3,5.4,5.4,0,0,0,1.88-.28,4.16,4.16,0,0,0,1.21-.66,3.46,3.46,0,0,0,.7-.77,5.11,5.11,0,0,0,.31-.58l-.14,1.28V173h19c.82,2,2.82,3,5.31,3s4.5-1.06,5.32-3h27l2-.47.15-.18-.74-2.63Zm-58.11,20.58-.6.18c-.27.08-.55.15-.85.22s-.58.14-.85.19a3.36,3.36,0,0,1-.66.09,4.39,4.39,0,0,1-1.22-.17,2.51,2.51,0,0,1-1-.6,2.7,2.7,0,0,1-.7-1.08,4.5,4.5,0,0,1-.25-1.61V163.4a3.59,3.59,0,0,1,.86-2.61,3,3,0,0,1,2.25-.88q3,0,3,3.13Zm27.68.1c0,2.3-1.26,3.53-3.35,3.53s-3.33-1.23-3.33-3.53V167.1c0-2.3,1.18-3.5,3.33-3.5s3.35,1.2,3.35,3.5Z"/><path class="cls-2" d="M206.43,43.32A173.68,173.68,0,0,1,210,13.94c0-.08.06-.25.1-.44h0A123.51,123.51,0,0,1,213.82,0a122.93,122.93,0,0,1,3.7,13.5h0c0,.17.07.34.1.44h0a172.66,172.66,0,0,1,3.57,29.4l0,0c.1,2.58.16,5.2.16,7.85,0,19.49-2.84,37.36-7.56,51.22-4.73-13.86-7.57-31.73-7.57-51.22,0-2.66.07-5.31.18-7.9"/><path class="cls-3" d="M213.81,17.81c18.22,0,37.73,7.13,48.49,16.86-14.08-1.22-30.59-3.21-48.5-2.94s-34.4,1.72-48.48,2.94c10.76-9.73,30.27-16.86,48.49-16.86"/><path class="cls-3" d="M176,16.63c14.05-4.18,33.85-2.68,52.29,7.29s30.77,26.85,34.77,41.33a228,228,0,0,0-41.58-29.53C205.38,27.05,190.13,20.51,176,16.63"/><path class="cls-4" d="M251.59,16.63c-14.09,3.88-29.35,10.42-45.48,19.09a228,228,0,0,0-41.58,29.53c4-14.48,16.23-31.38,34.77-41.33s38.25-11.47,52.29-7.29"/><path class="cls-5" d="M244,92.61c-3.59-13.39-14.62-36.11-22.86-49.37s-18.78-29.52-29-38.41c14.07,4,31.44,16,42,34.19S246.29,77.79,244,92.61"/><path class="cls-5" d="M183.63,92.61c-2.29-14.82-.88-35.36,9.85-53.59s28-30.19,42.06-34.19C225.26,13.72,214.71,30,206.48,43.24s-19.27,36-22.85,49.37"/></g></g></svg>