<?xml version="1.0" encoding="utf-8"?>
<!-- Generator: Adobe Illustrator 22.1.0, SVG Export Plug-In . SVG Version: 6.00 Build 0)  -->
<svg version="1.1" id="Layer_1" xmlns="http://www.w3.org/2000/svg" xmlns:xlink="http://www.w3.org/1999/xlink" x="0px" y="0px"
	 viewBox="0 0 30 47.6" style="enable-background:new 0 0 30 47.6;" xml:space="preserve">
<style type="text/css">
	.st0{fill:#006F42;}
	.st1{fill:#B98F38;}
	.st2{fill:#FCB631;}
	.st3{fill:#806745;}
	.st4{fill:#609D4E;}
	.st5{fill:#006F43;}
	.st6{fill:#BC7634;}
	.st7{fill:#64431D;}
	.st8{fill:#633317;}
	.st9{fill:#597139;}
	.st10{fill:#4B4D23;}
	.st11{fill:#2B2915;}
	.st12{fill:#344D28;}
	.st13{fill:#28321B;}
	.st14{fill:#292412;}
	.st15{fill:#091E12;}
	.st16{fill:#00562F;}
	.st17{fill:#004222;}
	.st18{fill:#002917;}
	.st19{fill:#002A18;}
	.st20{fill:#00170D;}
	.st21{fill:#002B19;}
	.st22{fill:#001C11;}
	.st23{fill:#001A0F;}
	.st24{fill:#00120A;}
	.st25{fill:#00110B;}
	.st26{fill:#004523;}
	.st27{fill:#002F1B;}
	.st28{fill:#001D12;}
	.st29{fill:#041F13;}
	.st30{fill:#00160D;}
	.st31{fill:#000304;}
</style>
<path class="st0" d="M15,0C6.7,0,0,6.7,0,15s15,32.6,15,32.6S30,23.3,30,15S23.3,0,15,0z M15,26.6C8.6,26.6,3.4,21.4,3.4,15
	S8.6,3.4,15,3.4S26.6,8.6,26.6,15S21.4,26.6,15,26.6z"/>
<g>
	<path class="st1" d="M19.2,11.7c1.1,0.1,2.2,0.2,3.2,0.3c-0.9-0.8-2.3-1.6-3.8-2c-0.4,0.2-0.8,0.3-1.2,0.5
		C18,10.8,18.6,11.2,19.2,11.7"/>
	<path class="st1" d="M11.5,9.9c-1.5,0.5-2.9,1.2-3.8,2c1-0.1,2-0.2,3.2-0.3c0.6-0.5,1.2-0.9,1.8-1.3C12.3,10.3,11.9,10.1,11.5,9.9"
		/>
	<path class="st2" d="M13.2,9c-1.4-0.2-2.8-0.1-3.9,0.2c0.7,0.2,1.5,0.4,2.2,0.7c0.7-0.2,1.4-0.4,2.1-0.5C13.5,9.3,13.3,9.2,13.2,9"
		/>
	<path class="st2" d="M18.1,12.6c0.2,0.3,0.4,0.6,0.5,1c1.4,1,2.7,2,3.9,3c-0.5-1.6-1.6-3.5-3.3-4.9c-0.6,0-1.2-0.1-1.8-0.1
		C17.7,11.9,17.9,12.3,18.1,12.6"/>
	<path class="st3" d="M18.6,9.9c0.8-0.3,1.5-0.5,2.2-0.7c-1.1-0.3-2.5-0.4-3.9-0.2c-0.1,0.2-0.3,0.3-0.4,0.5
		C17.2,9.6,17.9,9.7,18.6,9.9"/>
	<path class="st3" d="M12.6,11.6c-0.6,0-1.2,0.1-1.8,0.1C9.1,13.2,8,15,7.5,16.6c1.2-1,2.5-2.1,3.9-3c0.2-0.3,0.3-0.7,0.5-1
		C12.1,12.3,12.4,11.9,12.6,11.6"/>
	<path class="st4" d="M16.2,12.1c0,0-0.1,0-0.1-0.1c0,0.4,0.1,0.8,0.1,1.2c1.3,2,2.9,5.5,3.5,7.5c0.3-2,0.2-4.7-1-7.2
		C17.9,13.1,17,12.6,16.2,12.1"/>
	<path class="st4" d="M14.4,8.8C14.4,8.8,14.5,8.8,14.4,8.8L14.4,8.8L14.4,8.8c-0.9-0.7-1.9-1.1-2.7-1.4c0.5,0.4,1,1,1.5,1.6
		c0.4,0.1,0.8,0.1,1.2,0.2C14.4,9.1,14.4,8.9,14.4,8.8"/>
	<path class="st4" d="M15.6,8.8C15.6,8.8,15.6,8.8,15.6,8.8c0,0.2,0.1,0.3,0.1,0.5c0.4-0.1,0.8-0.2,1.2-0.2c0.5-0.6,1-1.1,1.5-1.6
		C17.5,7.7,16.5,8.1,15.6,8.8L15.6,8.8L15.6,8.8"/>
	<path class="st4" d="M13.9,12.1c-0.8,0.5-1.7,1-2.4,1.5c-1.2,2.5-1.3,5.2-1,7.2c0.5-2,2.2-5.5,3.5-7.5c0-0.4,0-0.8,0.1-1.2
		C13.9,12.1,13.9,12.1,13.9,12.1"/>
	<path class="st5" d="M15.6,8.8c-0.2-0.7-0.3-1.4-0.6-2c-0.2,0.6-0.4,1.3-0.6,2C14.6,8.9,14.8,9,15,9.2C15.2,9,15.4,8.9,15.6,8.8"/>
	<path class="st5" d="M15,11.5c-0.4,0.6-0.8,1.2-1.1,1.7v0l0,0c0,0.4,0,0.8,0,1.2c0,3,0.4,5.7,1.2,7.8c0.7-2.1,1.2-4.8,1.2-7.8
		c0-0.4,0-0.8,0-1.2l0,0c0,0,0,0,0,0C15.8,12.7,15.4,12.1,15,11.5"/>
	<path class="st6" d="M12.8,10.3c0.3-0.2,0.7-0.3,1-0.5c-0.1-0.1-0.2-0.2-0.3-0.3c-0.7,0.1-1.4,0.2-2.1,0.5c0.4,0.2,0.8,0.3,1.2,0.5
		C12.7,10.4,12.8,10.4,12.8,10.3"/>
	<path class="st6" d="M16.7,10.7c0.2,0.3,0.5,0.6,0.7,0.8c0.6,0,1.2,0.1,1.8,0.1c-0.5-0.5-1.2-0.9-1.8-1.3
		C17.2,10.5,16.9,10.6,16.7,10.7"/>
	<path class="st7" d="M16.2,9.8c0.3,0.2,0.7,0.3,1,0.5c0,0,0.1,0.1,0.2,0.1c0.4-0.2,0.8-0.3,1.2-0.5c-0.7-0.2-1.4-0.4-2.1-0.5
		C16.4,9.6,16.3,9.7,16.2,9.8"/>
	<path class="st7" d="M13.3,10.7c-0.2-0.1-0.4-0.2-0.7-0.3c-0.7,0.4-1.3,0.8-1.8,1.3c0.6,0,1.2-0.1,1.8-0.1
		C12.8,11.3,13.1,11,13.3,10.7"/>
	<path class="st8" d="M14,10c0-0.1-0.1-0.1-0.2-0.2c-0.3,0.2-0.7,0.3-1,0.5c0,0-0.1,0.1-0.2,0.1c0.2,0.1,0.4,0.2,0.7,0.3
		C13.5,10.5,13.8,10.3,14,10"/>
	<path class="st8" d="M16.7,10.7c0.2-0.1,0.4-0.2,0.7-0.3c0,0-0.1-0.1-0.2-0.1c-0.3-0.2-0.7-0.3-1-0.5c0,0.1-0.1,0.1-0.1,0.2
		C16.3,10.3,16.5,10.5,16.7,10.7"/>
	<path class="st9" d="M14.3,9.4c0-0.1,0-0.1,0-0.2C14,9.1,13.6,9.1,13.2,9c0.1,0.2,0.3,0.3,0.4,0.5C13.8,9.5,14.1,9.4,14.3,9.4"/>
	<path class="st9" d="M17.4,11.6c-0.5,0-0.9,0-1.4,0c0,0.2,0,0.4,0,0.5c0,0,0.1,0,0.1,0.1c0.8,0.5,1.7,1,2.4,1.5
		c-0.2-0.3-0.3-0.7-0.5-1C17.9,12.3,17.7,11.9,17.4,11.6"/>
	<path class="st10" d="M16,11.5c0.5,0,0.9,0,1.4,0c-0.2-0.3-0.5-0.6-0.7-0.8c-0.2,0.1-0.5,0.2-0.7,0.3C16,11.2,16,11.4,16,11.5"/>
	<path class="st10" d="M14.3,9.4c-0.2,0-0.5,0-0.7,0.1c0.1,0.1,0.2,0.2,0.3,0.3c0.1-0.1,0.3-0.1,0.4-0.2C14.3,9.6,14.3,9.5,14.3,9.4
		"/>
	<path class="st11" d="M14.3,9.8c0,0,0-0.1,0-0.1c-0.1,0.1-0.3,0.1-0.4,0.2c0,0.1,0.1,0.1,0.2,0.2C14.1,9.9,14.2,9.9,14.3,9.8"/>
	<path class="st11" d="M16.1,10c-0.1,0.1-0.1,0.2-0.2,0.3c0,0.3,0.1,0.5,0.1,0.8c0.2-0.1,0.5-0.2,0.7-0.3
		C16.5,10.5,16.3,10.3,16.1,10"/>
	<path class="st12" d="M14,12.1c0-0.2,0-0.3,0-0.5c-0.5,0-1,0-1.4,0.1c-0.2,0.3-0.5,0.7-0.7,1c-0.2,0.3-0.4,0.6-0.5,1
		c0.8-0.5,1.6-1,2.4-1.5C13.9,12.1,13.9,12.1,14,12.1"/>
	<path class="st12" d="M15.7,9.4c0.2,0,0.5,0,0.7,0.1c0.1-0.2,0.3-0.3,0.4-0.5c-0.4,0.1-0.8,0.1-1.2,0.2C15.7,9.3,15.7,9.4,15.7,9.4
		"/>
	<path class="st13" d="M13.3,10.7c-0.3,0.3-0.5,0.6-0.7,0.9c0.5,0,0.9,0,1.4-0.1c0-0.2,0-0.3,0.1-0.5C13.8,10.9,13.6,10.8,13.3,10.7
		"/>
	<path class="st13" d="M16.2,9.8c0.1-0.1,0.2-0.2,0.3-0.3c-0.2,0-0.5-0.1-0.7-0.1c0,0.1,0,0.2,0,0.2C15.9,9.7,16.1,9.8,16.2,9.8"/>
	<path class="st14" d="M15.8,9.8C15.9,9.9,16,9.9,16,10c0-0.1,0.1-0.1,0.1-0.2c-0.1-0.1-0.3-0.1-0.4-0.2C15.8,9.7,15.8,9.7,15.8,9.8
		"/>
	<path class="st14" d="M14.2,10.3c-0.1-0.1-0.1-0.2-0.2-0.3c-0.2,0.2-0.5,0.4-0.7,0.7c0.2,0.1,0.5,0.2,0.7,0.3
		C14.1,10.8,14.1,10.5,14.2,10.3"/>
	<path class="st15" d="M16.1,10c-0.1-0.1-0.2-0.2-0.3-0.2c0,0.2,0.1,0.3,0.1,0.5C15.9,10.2,16,10.1,16.1,10"/>
	<path class="st15" d="M14,10c0.1,0.1,0.1,0.2,0.2,0.3c0-0.2,0-0.3,0.1-0.5C14.2,9.9,14.1,9.9,14,10"/>
	<path class="st16" d="M14.5,8.8C14.5,8.8,14.4,8.8,14.5,8.8c0,0.2-0.1,0.3-0.1,0.5c0.1,0,0.3,0.1,0.4,0.1c0.1-0.1,0.2-0.1,0.2-0.2
		C14.8,9,14.6,8.9,14.5,8.8L14.5,8.8L14.5,8.8z"/>
	<path class="st16" d="M15,11.5L15,11.5L15,11.5c0.4,0.6,0.8,1.2,1.1,1.8c0,0,0,0,0,0c0-0.4,0-0.8-0.1-1.2
		C15.7,11.9,15.4,11.7,15,11.5"/>
	<path class="st17" d="M14.8,9.3c-0.1,0-0.3-0.1-0.4-0.1c0,0.1,0,0.1,0,0.2c0.1,0,0.2,0,0.4,0C14.7,9.4,14.8,9.4,14.8,9.3"/>
	<path class="st17" d="M15,11.5c0.3,0.2,0.7,0.3,1,0.5c0-0.2,0-0.4,0-0.5C15.7,11.5,15.4,11.5,15,11.5"/>
	<path class="st18" d="M14.5,9.6c0.1-0.1,0.1-0.1,0.2-0.2c-0.1,0-0.2,0-0.4,0c0,0.1,0,0.2,0,0.2C14.3,9.6,14.4,9.6,14.5,9.6"/>
	<path class="st19" d="M16,11.5c0-0.2,0-0.3,0-0.5c-0.3,0.2-0.6,0.3-0.9,0.5l0,0l0,0C15.4,11.5,15.7,11.5,16,11.5"/>
	<path class="st20" d="M14.3,9.7c0,0,0,0.1,0,0.1c0.1-0.1,0.2-0.1,0.2-0.2C14.4,9.6,14.3,9.6,14.3,9.7"/>
	<path class="st20" d="M15,11.5c0.3-0.2,0.6-0.3,0.9-0.5c0-0.3-0.1-0.5-0.1-0.8C15.6,10.7,15.3,11.1,15,11.5"/>
	<path class="st16" d="M15,11.5L15,11.5L15,11.5c-0.3,0.2-0.7,0.3-1,0.5c0,0.4-0.1,0.8-0.1,1.2v0C14.3,12.7,14.6,12.1,15,11.5"/>
	<path class="st16" d="M15.3,9.3c0.1,0,0.3-0.1,0.4-0.1c0-0.1-0.1-0.3-0.1-0.4c0,0,0,0,0-0.1l0,0l0,0C15.4,8.9,15.2,9,15,9.2
		C15.1,9.2,15.2,9.3,15.3,9.3"/>
	<path class="st21" d="M14,12.1c0.3-0.2,0.7-0.4,1-0.5c-0.3,0-0.7,0-1,0C14,11.7,14,11.9,14,12.1"/>
	<path class="st21" d="M15.7,9.4c0-0.1,0-0.1,0-0.2c-0.1,0-0.3,0.1-0.4,0.1c0,0,0.1,0,0.1,0.1C15.5,9.4,15.6,9.4,15.7,9.4"/>
	<path class="st22" d="M15.6,9.6c0.1,0,0.1,0,0.2,0.1c0-0.1,0-0.2,0-0.2c-0.1,0-0.2,0-0.4,0C15.4,9.5,15.5,9.5,15.6,9.6"/>
	<path class="st23" d="M15,11.5c-0.3-0.2-0.6-0.3-0.9-0.5c0,0.2,0,0.3-0.1,0.5C14.4,11.5,14.7,11.5,15,11.5C15,11.5,15,11.5,15,11.5
		L15,11.5"/>
	<path class="st24" d="M14.1,11.1c0.3,0.2,0.6,0.3,0.9,0.5c-0.3-0.4-0.6-0.8-0.8-1.2C14.1,10.5,14.1,10.8,14.1,11.1"/>
	<path class="st25" d="M15.8,9.7c-0.1,0-0.1,0-0.2-0.1c0.1,0.1,0.2,0.1,0.2,0.2C15.8,9.7,15.8,9.7,15.8,9.7"/>
	<path class="st26" d="M15,9.4L15,9.4c0.1,0,0.2,0,0.2-0.1c-0.1-0.1-0.2-0.1-0.2-0.2c-0.1,0.1-0.2,0.1-0.2,0.2
		C14.9,9.4,14.9,9.4,15,9.4L15,9.4"/>
	<path class="st27" d="M15,9.4c-0.1,0-0.2,0-0.2-0.1c0,0-0.1,0-0.1,0.1C14.8,9.4,14.9,9.4,15,9.4"/>
	<path class="st28" d="M15,9.4c-0.1,0-0.2,0-0.3,0c-0.1,0.1-0.2,0.1-0.2,0.2C14.7,9.5,14.8,9.5,15,9.4C15,9.4,15,9.4,15,9.4"/>
	<path class="st29" d="M15.4,9.4C15.3,9.4,15.3,9.4,15.4,9.4c-0.2-0.1-0.2,0-0.3,0C15.1,9.4,15.3,9.4,15.4,9.4"/>
	<path class="st30" d="M15.6,9.6c-0.1-0.1-0.1-0.1-0.2-0.2c-0.1,0-0.2,0-0.3,0l0,0C15.2,9.5,15.4,9.5,15.6,9.6"/>
	<path class="st31" d="M15.8,9.8c-0.1-0.1-0.2-0.1-0.2-0.2c-0.2-0.1-0.4-0.1-0.5-0.2c-0.2,0.1-0.4,0.1-0.5,0.2
		c-0.1,0.1-0.2,0.1-0.2,0.2c0,0.2-0.1,0.3-0.1,0.5c0.3,0.4,0.6,0.8,0.8,1.2l0,0l0,0c0.3-0.4,0.5-0.8,0.8-1.2
		C15.8,10.1,15.8,9.9,15.8,9.8"/>
	<path class="st1" d="M19.2,11.7c1.1,0.1,2.2,0.2,3.2,0.3c-0.9-0.8-2.3-1.6-3.8-2c-0.4,0.2-0.8,0.3-1.2,0.5
		C18,10.8,18.6,11.2,19.2,11.7"/>
	<path class="st1" d="M11.5,9.9c-1.5,0.5-2.9,1.2-3.8,2c1-0.1,2-0.2,3.2-0.3c0.6-0.5,1.2-0.9,1.8-1.3C12.3,10.3,11.9,10.1,11.5,9.9"
		/>
	<path class="st2" d="M13.2,9c-1.4-0.2-2.8-0.1-3.9,0.2c0.7,0.2,1.5,0.4,2.2,0.7c0.7-0.2,1.4-0.4,2.1-0.5C13.5,9.3,13.3,9.2,13.2,9"
		/>
	<path class="st2" d="M18.1,12.6c0.2,0.3,0.4,0.6,0.5,1c1.4,1,2.7,2,3.9,3c-0.5-1.6-1.6-3.5-3.3-4.9c-0.6,0-1.2-0.1-1.8-0.1
		C17.7,11.9,17.9,12.3,18.1,12.6"/>
	<path class="st3" d="M18.6,9.9c0.8-0.3,1.5-0.5,2.2-0.7c-1.1-0.3-2.5-0.4-3.9-0.2c-0.1,0.2-0.3,0.3-0.4,0.5
		C17.2,9.6,17.9,9.7,18.6,9.9"/>
	<path class="st3" d="M12.6,11.6c-0.6,0-1.2,0.1-1.8,0.1C9.1,13.2,8,15,7.5,16.6c1.2-1,2.5-2.1,3.9-3c0.2-0.3,0.3-0.7,0.5-1
		C12.1,12.3,12.4,11.9,12.6,11.6"/>
	<path class="st4" d="M16.2,12.1c0,0-0.1,0-0.1-0.1c0,0.4,0.1,0.8,0.1,1.2c1.3,2,2.9,5.5,3.5,7.5c0.3-2,0.2-4.7-1-7.2
		C17.9,13.1,17,12.6,16.2,12.1"/>
	<path class="st4" d="M14.4,8.8C14.4,8.8,14.5,8.8,14.4,8.8L14.4,8.8L14.4,8.8c-0.9-0.7-1.9-1.1-2.7-1.4c0.5,0.4,1,1,1.5,1.6
		c0.4,0.1,0.8,0.1,1.2,0.2C14.4,9.1,14.4,8.9,14.4,8.8"/>
	<path class="st4" d="M15.6,8.8C15.6,8.8,15.6,8.8,15.6,8.8c0,0.2,0.1,0.3,0.1,0.5c0.4-0.1,0.8-0.2,1.2-0.2c0.5-0.6,1-1.1,1.5-1.6
		C17.5,7.7,16.5,8.1,15.6,8.8L15.6,8.8L15.6,8.8"/>
	<path class="st4" d="M13.9,12.1c-0.8,0.5-1.7,1-2.4,1.5c-1.2,2.5-1.3,5.2-1,7.2c0.5-2,2.2-5.5,3.5-7.5c0-0.4,0-0.8,0.1-1.2
		C13.9,12.1,13.9,12.1,13.9,12.1"/>
	<path class="st5" d="M15.6,8.8c-0.2-0.7-0.3-1.4-0.6-2c-0.2,0.6-0.4,1.3-0.6,2C14.6,8.9,14.8,9,15,9.2C15.2,9,15.4,8.9,15.6,8.8"/>
	<path class="st5" d="M15,11.5c-0.4,0.6-0.8,1.2-1.1,1.7v0l0,0c0,0.4,0,0.8,0,1.2c0,3,0.4,5.7,1.2,7.8c0.7-2.1,1.2-4.8,1.2-7.8
		c0-0.4,0-0.8,0-1.2l0,0c0,0,0,0,0,0C15.8,12.7,15.4,12.1,15,11.5"/>
	<path class="st6" d="M12.8,10.3c0.3-0.2,0.7-0.3,1-0.5c-0.1-0.1-0.2-0.2-0.3-0.3c-0.7,0.1-1.4,0.2-2.1,0.5c0.4,0.2,0.8,0.3,1.2,0.5
		C12.7,10.4,12.8,10.4,12.8,10.3"/>
	<path class="st6" d="M16.7,10.7c0.2,0.3,0.5,0.6,0.7,0.8c0.6,0,1.2,0.1,1.8,0.1c-0.5-0.5-1.2-0.9-1.8-1.3
		C17.2,10.5,16.9,10.6,16.7,10.7"/>
	<path class="st7" d="M16.2,9.8c0.3,0.2,0.7,0.3,1,0.5c0,0,0.1,0.1,0.2,0.1c0.4-0.2,0.8-0.3,1.2-0.5c-0.7-0.2-1.4-0.4-2.1-0.5
		C16.4,9.6,16.3,9.7,16.2,9.8"/>
	<path class="st7" d="M13.3,10.7c-0.2-0.1-0.4-0.2-0.7-0.3c-0.7,0.4-1.3,0.8-1.8,1.3c0.6,0,1.2-0.1,1.8-0.1
		C12.8,11.3,13.1,11,13.3,10.7"/>
	<path class="st8" d="M14,10c0-0.1-0.1-0.1-0.2-0.2c-0.3,0.2-0.7,0.3-1,0.5c0,0-0.1,0.1-0.2,0.1c0.2,0.1,0.4,0.2,0.7,0.3
		C13.5,10.5,13.8,10.3,14,10"/>
	<path class="st8" d="M16.7,10.7c0.2-0.1,0.4-0.2,0.7-0.3c0,0-0.1-0.1-0.2-0.1c-0.3-0.2-0.7-0.3-1-0.5c0,0.1-0.1,0.1-0.1,0.2
		C16.3,10.3,16.5,10.5,16.7,10.7"/>
	<path class="st9" d="M14.3,9.4c0-0.1,0-0.1,0-0.2C14,9.1,13.6,9.1,13.2,9c0.1,0.2,0.3,0.3,0.4,0.5C13.8,9.5,14.1,9.4,14.3,9.4"/>
	<path class="st9" d="M17.4,11.6c-0.5,0-0.9,0-1.4,0c0,0.2,0,0.4,0,0.5c0,0,0.1,0,0.1,0.1c0.8,0.5,1.7,1,2.4,1.5
		c-0.2-0.3-0.3-0.7-0.5-1C17.9,12.3,17.7,11.9,17.4,11.6"/>
	<path class="st10" d="M16,11.5c0.5,0,0.9,0,1.4,0c-0.2-0.3-0.5-0.6-0.7-0.8c-0.2,0.1-0.5,0.2-0.7,0.3C16,11.2,16,11.4,16,11.5"/>
	<path class="st10" d="M14.3,9.4c-0.2,0-0.5,0-0.7,0.1c0.1,0.1,0.2,0.2,0.3,0.3c0.1-0.1,0.3-0.1,0.4-0.2C14.3,9.6,14.3,9.5,14.3,9.4
		"/>
	<path class="st11" d="M14.3,9.8c0,0,0-0.1,0-0.1c-0.1,0.1-0.3,0.1-0.4,0.2c0,0.1,0.1,0.1,0.2,0.2C14.1,9.9,14.2,9.9,14.3,9.8"/>
	<path class="st11" d="M16.1,10c-0.1,0.1-0.1,0.2-0.2,0.3c0,0.3,0.1,0.5,0.1,0.8c0.2-0.1,0.5-0.2,0.7-0.3
		C16.5,10.5,16.3,10.3,16.1,10"/>
	<path class="st12" d="M14,12.1c0-0.2,0-0.3,0-0.5c-0.5,0-1,0-1.4,0.1c-0.2,0.3-0.5,0.7-0.7,1c-0.2,0.3-0.4,0.6-0.5,1
		c0.8-0.5,1.6-1,2.4-1.5C13.9,12.1,13.9,12.1,14,12.1"/>
	<path class="st12" d="M15.7,9.4c0.2,0,0.5,0,0.7,0.1c0.1-0.2,0.3-0.3,0.4-0.5c-0.4,0.1-0.8,0.1-1.2,0.2C15.7,9.3,15.7,9.4,15.7,9.4
		"/>
	<path class="st13" d="M13.3,10.7c-0.3,0.3-0.5,0.6-0.7,0.9c0.5,0,0.9,0,1.4-0.1c0-0.2,0-0.3,0.1-0.5C13.8,10.9,13.6,10.8,13.3,10.7
		"/>
	<path class="st13" d="M16.2,9.8c0.1-0.1,0.2-0.2,0.3-0.3c-0.2,0-0.5-0.1-0.7-0.1c0,0.1,0,0.2,0,0.2C15.9,9.7,16.1,9.8,16.2,9.8"/>
	<path class="st14" d="M15.8,9.8C15.9,9.9,16,9.9,16,10c0-0.1,0.1-0.1,0.1-0.2c-0.1-0.1-0.3-0.1-0.4-0.2C15.8,9.7,15.8,9.7,15.8,9.8
		"/>
	<path class="st14" d="M14.2,10.3c-0.1-0.1-0.1-0.2-0.2-0.3c-0.2,0.2-0.5,0.4-0.7,0.7c0.2,0.1,0.5,0.2,0.7,0.3
		C14.1,10.8,14.1,10.5,14.2,10.3"/>
	<path class="st15" d="M16.1,10c-0.1-0.1-0.2-0.2-0.3-0.2c0,0.2,0.1,0.3,0.1,0.5C15.9,10.2,16,10.1,16.1,10"/>
	<path class="st15" d="M14,10c0.1,0.1,0.1,0.2,0.2,0.3c0-0.2,0-0.3,0.1-0.5C14.2,9.9,14.1,9.9,14,10"/>
	<path class="st16" d="M14.5,8.8C14.5,8.8,14.4,8.8,14.5,8.8c0,0.2-0.1,0.3-0.1,0.5c0.1,0,0.3,0.1,0.4,0.1c0.1-0.1,0.2-0.1,0.2-0.2
		C14.8,9,14.6,8.9,14.5,8.8L14.5,8.8L14.5,8.8z"/>
	<path class="st16" d="M15,11.5L15,11.5L15,11.5c0.4,0.6,0.8,1.2,1.1,1.8c0,0,0,0,0,0c0-0.4,0-0.8-0.1-1.2
		C15.7,11.9,15.4,11.7,15,11.5"/>
	<path class="st17" d="M14.8,9.3c-0.1,0-0.3-0.1-0.4-0.1c0,0.1,0,0.1,0,0.2c0.1,0,0.2,0,0.4,0C14.7,9.4,14.8,9.4,14.8,9.3"/>
	<path class="st17" d="M15,11.5c0.3,0.2,0.7,0.3,1,0.5c0-0.2,0-0.4,0-0.5C15.7,11.5,15.4,11.5,15,11.5"/>
	<path class="st18" d="M14.5,9.6c0.1-0.1,0.1-0.1,0.2-0.2c-0.1,0-0.2,0-0.4,0c0,0.1,0,0.2,0,0.2C14.3,9.6,14.4,9.6,14.5,9.6"/>
	<path class="st19" d="M16,11.5c0-0.2,0-0.3,0-0.5c-0.3,0.2-0.6,0.3-0.9,0.5l0,0l0,0C15.4,11.5,15.7,11.5,16,11.5"/>
	<path class="st20" d="M14.3,9.7c0,0,0,0.1,0,0.1c0.1-0.1,0.2-0.1,0.2-0.2C14.4,9.6,14.3,9.6,14.3,9.7"/>
	<path class="st20" d="M15,11.5c0.3-0.2,0.6-0.3,0.9-0.5c0-0.3-0.1-0.5-0.1-0.8C15.6,10.7,15.3,11.1,15,11.5"/>
	<path class="st16" d="M15,11.5L15,11.5L15,11.5c-0.3,0.2-0.7,0.3-1,0.5c0,0.4-0.1,0.8-0.1,1.2v0C14.3,12.7,14.6,12.1,15,11.5"/>
	<path class="st16" d="M15.3,9.3c0.1,0,0.3-0.1,0.4-0.1c0-0.1-0.1-0.3-0.1-0.4c0,0,0,0,0-0.1l0,0l0,0C15.4,8.9,15.2,9,15,9.2
		C15.1,9.2,15.2,9.3,15.3,9.3"/>
	<path class="st21" d="M14,12.1c0.3-0.2,0.7-0.4,1-0.5c-0.3,0-0.7,0-1,0C14,11.7,14,11.9,14,12.1"/>
	<path class="st21" d="M15.7,9.4c0-0.1,0-0.1,0-0.2c-0.1,0-0.3,0.1-0.4,0.1c0,0,0.1,0,0.1,0.1C15.5,9.4,15.6,9.4,15.7,9.4"/>
	<path class="st22" d="M15.6,9.6c0.1,0,0.1,0,0.2,0.1c0-0.1,0-0.2,0-0.2c-0.1,0-0.2,0-0.4,0C15.4,9.5,15.5,9.5,15.6,9.6"/>
	<path class="st23" d="M15,11.5c-0.3-0.2-0.6-0.3-0.9-0.5c0,0.2,0,0.3-0.1,0.5C14.4,11.5,14.7,11.5,15,11.5C15,11.5,15,11.5,15,11.5
		L15,11.5"/>
	<path class="st24" d="M14.1,11.1c0.3,0.2,0.6,0.3,0.9,0.5c-0.3-0.4-0.6-0.8-0.8-1.2C14.1,10.5,14.1,10.8,14.1,11.1"/>
	<path class="st25" d="M15.8,9.7c-0.1,0-0.1,0-0.2-0.1c0.1,0.1,0.2,0.1,0.2,0.2C15.8,9.7,15.8,9.7,15.8,9.7"/>
	<path class="st26" d="M15,9.4L15,9.4c0.1,0,0.2,0,0.2-0.1c-0.1-0.1-0.2-0.1-0.2-0.2c-0.1,0.1-0.2,0.1-0.2,0.2
		C14.9,9.4,14.9,9.4,15,9.4L15,9.4"/>
	<path class="st27" d="M15,9.4c-0.1,0-0.2,0-0.2-0.1c0,0-0.1,0-0.1,0.1C14.8,9.4,14.9,9.4,15,9.4"/>
	<path class="st28" d="M15,9.4c-0.1,0-0.2,0-0.3,0c-0.1,0.1-0.2,0.1-0.2,0.2C14.7,9.5,14.8,9.5,15,9.4C15,9.4,15,9.4,15,9.4"/>
	<path class="st29" d="M15.4,9.4C15.3,9.4,15.3,9.4,15.4,9.4c-0.2-0.1-0.2,0-0.3,0C15.1,9.4,15.3,9.4,15.4,9.4"/>
	<path class="st30" d="M15.6,9.6c-0.1-0.1-0.1-0.1-0.2-0.2c-0.1,0-0.2,0-0.3,0l0,0C15.2,9.5,15.4,9.5,15.6,9.6"/>
	<path class="st31" d="M15.8,9.8c-0.1-0.1-0.2-0.1-0.2-0.2c-0.2-0.1-0.4-0.1-0.5-0.2c-0.2,0.1-0.4,0.1-0.5,0.2
		c-0.1,0.1-0.2,0.1-0.2,0.2c0,0.2-0.1,0.3-0.1,0.5c0.3,0.4,0.6,0.8,0.8,1.2l0,0l0,0c0.3-0.4,0.5-0.8,0.8-1.2
		C15.8,10.1,15.8,9.9,15.8,9.8"/>
</g>
</svg>
